<svg xmlns="http://www.w3.org/2000/svg" viewBox="0 0 298.9 299"><title>codedemo</title><path d="M149.7,0.9a149,149,0,1,0,149,149A148.84,148.84,0,0,0,149.7.9Zm0,282.9a134,134,0,1,1,134-134A134,134,0,0,1,149.7,283.8Z" transform="translate(-0.3 -0.4)" fill="#3683bb" stroke="#3683bb" stroke-miterlimit="10"/><path d="M63.9,155V134.3c6.5-.1,11.1-1.9,13.8-5.5a23.81,23.81,0,0,0,4.6-12.1c0.3-4.5.5-9.4,0.5-14.7,0-9.5.5-16.6,1.5-21.1a22.14,22.14,0,0,1,5.4-10.8,24.66,24.66,0,0,1,10.6-6.2c4.5-1.3,10.5-2,18-2h4.6V82.5c-7.6,0-12.5.8-14.5,2.3s-3.1,4.9-3.1,10.2c0,16.9-1.1,28.4-3.2,34.4s-6.5,11.1-13,15.3a28.35,28.35,0,0,1,12.1,12.8c2.7,5.7,4,18,4,36.8,0,4.1.6,6.9,1.8,8.5a8.11,8.11,0,0,0,4.8,3.2,51.93,51.93,0,0,0,10.9.8v20.7h-4.5c-9.9,0-17.5-1.3-22.6-3.9a19.79,19.79,0,0,1-10.3-11.2c-1.8-4.8-2.7-13.2-2.7-25.1,0-9-.5-15.5-1.5-19.7a14.71,14.71,0,0,0-5.4-9C73.2,156.5,69.2,155.3,63.9,155Z" transform="translate(-0.3 -0.4)" fill="#3683bb" stroke="#3683bb" stroke-miterlimit="10"/><path d="M235.6,134.3V155c-5.2.2-9.2,1.4-11.8,3.4a16.07,16.07,0,0,0-5.5,9.1c-1,4-1.5,10.6-1.5,19.7,0,9.9-.5,16.9-1.4,21.2a21,21,0,0,1-16,16.9q-6.6,2.1-18,2.1h-4.6V206.7c7.3,0,12-.8,14.2-2.4s3.4-5,3.4-10.1c0-16.5,1.1-28,3.2-34.4a27,27,0,0,1,12.9-15.2c-7.1-4.2-11.5-9.7-13.4-16.4s-2.8-17.8-2.8-33.3c0-5.5-1.1-8.9-3.2-10.3s-6.9-2.2-14.4-2.2V61.9h4.6q17.4,0,23.7,4.2a25.86,25.86,0,0,1,9,10c1.8,3.8,2.8,12.5,2.8,25.8,0,9.1.5,15.6,1.5,19.7a15.38,15.38,0,0,0,5.5,9.1C226.4,132.9,230.4,134.1,235.6,134.3Z" transform="translate(-0.3 -0.4)" fill="#3683bb" stroke="#3683bb" stroke-miterlimit="10"/></svg>