<?xml version="1.0" encoding="utf-8"?>
<!-- Generator: Adobe Illustrator 18.1.1, SVG Export Plug-In . SVG Version: 6.00 Build 0)  -->
<svg version="1.1" id="Calque_1" xmlns="http://www.w3.org/2000/svg" xmlns:xlink="http://www.w3.org/1999/xlink" x="0px" y="0px"
	 viewBox="596.8 0 611.6 600" enable-background="new 596.8 0 611.6 600" xml:space="preserve">
<g id="Calque_1_1_">
</g>
<g id="circle">
	<g>
		<path fill="#47494D" d="M902.2,0C736.6,0,602.3,134.3,602.3,300c0,53.5,14,103.7,38.5,147.2c7.8-11.1,19.2-19.5,32.6-23.4
			c-19.9-36.9-31.3-79-31.3-123.8c0-143.7,116.5-260.1,260.1-260.1s260.1,116.5,260.1,260.1S1046,560.1,902.2,560.1
			c-59.5,0-114.2-19.9-158-53.5c-5.8,12.5-15.8,22.6-28.2,28.6c51.2,40.6,115.9,64.8,186.2,64.8c165.7,0,300-134.3,300-300
			S1067.9,0,902.2,0z"/>
		<path display="none" fill="#47494D" d="M96.7,382.5c-3.8,5.4-6,12-6,19.1c0,18.6,15.1,33.6,33.6,33.6c5.3,0,10.2-1.2,14.6-3.4
			C121.9,418.5,107.5,401.7,96.7,382.5z"/>
		<path display="none" fill="#47494D" d="M154.7,416c2-4.3,3.1-9.2,3.1-14.3c0-18.6-15.1-33.6-33.6-33.6c-3.2,0-6.4,0.5-9.3,1.3
			C124.9,387.6,138.4,403.5,154.7,416z"/>
	</g>
	<circle fill="#47494D" cx="688.6" cy="482.7" r="40.9"/>
</g>
<g id="logo">
	<g>
		<path fill="#47494D" d="M774.1,206.8l-93.4,94.6l93.4,94.6c8.6,8.6,22.4,8.6,30.8,0c8.6-8.6,8.6-22.6,0-31.2l-59.2-59.9
			l-17.9,11.3l77-78.1c4.2-4.3,6.4-10,6.4-15.6c0-5.6-2.1-11.3-6.4-15.6C796.5,198.2,782.7,198.2,774.1,206.8z"/>
		<path fill="#47494D" d="M1031,206.8l93.4,94.6L1031,396c-8.6,8.6-22.4,8.6-30.8,0c-8.6-8.6-8.6-22.6,0-31.2l59.2-59.9l17.9,11.3
			l-77-78.1c-4.2-4.3-6.4-10-6.4-15.6c0-5.6,2.1-11.3,6.4-15.6C1008.7,198.2,1022.5,198.2,1031,206.8z"/>
		<path fill="#47494D" d="M956.3,214.4c-2-5.3-6.1-9.7-11.7-12.2c-11.1-4.9-23.9,0.2-28.7,11.3l-68.1,158
			c-2.4,5.6-2.3,11.6-0.2,16.9c2,5.3,6.1,9.7,11.7,12.2c11.1,4.9,23.9-0.2,28.7-11.3l68.1-158C958.4,225.7,958.3,219.7,956.3,214.4z
			"/>
	</g>
</g>
</svg>
