<svg xmlns="http://www.w3.org/2000/svg" viewBox="0 0 295 295"><title>dbdemo</title><path d="M147.7,0.8a147,147,0,1,0,147,147A147,147,0,0,0,147.7.8Zm0,279.3A132.24,132.24,0,0,1,15.5,147.8c0-73,59.2-132.3,132.2-132.3A132.3,132.3,0,1,1,147.7,280.1Z" transform="translate(-0.2 -0.3)" fill="#fb8d46" stroke="#fb8d46" stroke-miterlimit="10"/><path d="M92.4,132.6c15,3.5,35.1,5.7,57.1,5.7,34,0,63.3-5.2,76.8-12.5l4.4-29.3c-15.1,5-40.8,8.5-70.1,8.5-46.4,0-84-8.5-84-18.9s37.7-18.9,84-18.9c20.7,0,39.6,1.7,54.3,4.4-15.5-4.6-39.7-7.6-67-7.6-46.8,0-84.8,8.8-84.8,19.6a2.49,2.49,0,0,0,.1.8l5.9,39.2a45.42,45.42,0,0,0,12.5,6.1c-6.8,2.6-10.6,5.7-10.6,9a2,2,0,0,0,.1.7l5.3,35.3c3.1,2.4,7.9,4.7,14.1,6.8-8.3,2.6-13.1,5.9-13.1,9.4a1.27,1.27,0,0,0,.1.6l4.9,28.1c9.2,7.1,35.4,16.3,66.3,16.3,28.1,0,51.2-6.3,62.4-12.4l4.7-27.4c-12.4,4.2-39.9,12.2-64.1,12.2-38.4,0-63.2-7-63.2-15.5,0-3.2,4.3-6.1,11.6-8.6a201.93,201.93,0,0,0,49,5.8c30.7,0,57.2-6.8,69.4-13.4l3.7-29.5c-13.6,4.6-36.9,10.7-63.2,10.7-41.9,0-75.9-7.6-75.9-17C83.2,137.8,86.5,135,92.4,132.6Zm112.1-19.2c1.4-2.7,4-4.1,5.7-3.2s2,3.8.5,6.5-4,4.1-5.7,3.2S203.1,116.1,204.5,113.4Zm0,97.8c1.4-2.7,4-4.1,5.7-3.2s2,3.8.5,6.5-4,4.1-5.7,3.2S203.1,213.9,204.5,211.2Zm0-47c1.4-2.7,4-4.1,5.7-3.2s2,3.8.5,6.5-4,4.1-5.7,3.2S203.1,166.9,204.5,164.2Z" transform="translate(-0.2 -0.3)" fill="#fb8d46"/></svg>