<svg xmlns="http://www.w3.org/2000/svg" viewBox="0 0 305.4 305.5"><title>graphdemo</title><path d="M153.8,1.8A151.74,151.74,0,0,0,2.1,153.5c0,83.7,67.9,151.8,151.7,151.8A151.68,151.68,0,0,0,305.5,153.6C305.5,69.8,237.6,1.8,153.8,1.8Zm0,288.3A136.55,136.55,0,1,1,290.3,153.5,136.48,136.48,0,0,1,153.8,290.1Z" transform="translate(-1.1 -0.8)" fill="#6eafd4" stroke="#6eafd4" stroke-miterlimit="10" stroke-width="2"/><path d="M221.7,120.3a12.21,12.21,0,0,0-11.7,9.2H190.8L217,94.6a11.93,11.93,0,0,0,4.7.9,12.4,12.4,0,1,0-12.4-12.4,12.25,12.25,0,0,0,2.8,7.6l-29,38.9H159.4a12.1,12.1,0,0,0-11.7-9.2,12.4,12.4,0,0,0-12.4,12.4,12,12,0,0,0,3,7.8l-22.8,32-17.3-3.4a12.36,12.36,0,1,0-1.2,6.1l14.6,2.9L90.4,207.9A12.78,12.78,0,0,0,86,207a12.4,12.4,0,1,0,12.4,12.4,12,12,0,0,0-3-7.8l22.9-32,17.3,3.4a12.27,12.27,0,0,0,12.2,11.6,12.4,12.4,0,0,0,12.4-12.4,12.25,12.25,0,0,0-2.8-7.6l29.1-38.7h23.7a12.1,12.1,0,0,0,11.7,9.2,12.4,12.4,0,0,0,12.4-12.4A12.7,12.7,0,0,0,221.7,120.3Zm-69.3,50.3a11.93,11.93,0,0,0-4.7-.9,12.24,12.24,0,0,0-11,7l-14.6-2.9,21.2-29.7a12.78,12.78,0,0,0,4.4.9,12.21,12.21,0,0,0,11.7-9.2h19.2Z" transform="translate(-1.1 -0.8)" fill="#6eafd4" stroke="#6eafd4" stroke-miterlimit="10" stroke-width="4"/></svg>