<?xml version="1.0" encoding="utf-8"?>
<!-- Generator: Adobe Illustrator 19.2.1, SVG Export Plug-In . SVG Version: 6.00 Build 0)  -->
<svg version="1.1" id="Calque_1" xmlns="http://www.w3.org/2000/svg" xmlns:xlink="http://www.w3.org/1999/xlink" x="0px" y="0px"
	 viewBox="0 0 328 328.1" style="enable-background:new 0 0 328 328.1;" xml:space="preserve">
<style type="text/css">
	.st0{fill:url(#SVGID_1_);}
	.st1{fill:#FFFDFD;stroke:#84993E;stroke-width:1.81;stroke-miterlimit:10;}
	.st2{fill:#FFFDFD;}
	.st3{fill:#84993E;}
	.st4{fill:#84993E;stroke:#FFFDFD;stroke-width:1.81;stroke-miterlimit:10;}
	.st5{fill:#84993E;stroke:#FFFDFD;stroke-width:1.57;stroke-miterlimit:10;}
	.st6{fill:#84993E;stroke:#FFFDFD;stroke-width:1.29;stroke-miterlimit:10;}
	.st7{fill:#FCFCFC;stroke:#84993E;stroke-width:1.7;stroke-miterlimit:10;}
	.st8{fill:#FFFFFF;stroke:#84993E;stroke-width:1.7;stroke-miterlimit:10;}
</style>
<title>iosmove2</title>
<linearGradient id="SVGID_1_" gradientUnits="userSpaceOnUse" x1="197.7" y1="-277.4922" x2="197.7" y2="6.0078" gradientTransform="matrix(1 0 0 -1 -34 28.0155)">
	<stop  offset="0" style="stop-color:#84993E"/>
	<stop  offset="1" style="stop-color:#BDCB8A"/>
</linearGradient>
<path class="st0" d="M259.8,305.5H67.6C42.4,305.5,22,285,22,259.8V67.6C22,42.4,42.4,22,67.6,22c0,0,0,0,0,0h192.2
	c25.2,0,45.6,20.4,45.6,45.6c0,0,0,0,0,0v192.2c0.1,25.2-20.3,45.6-45.5,45.7C259.9,305.5,259.8,305.5,259.8,305.5z"/>
<path class="st1" d="M203.3,196.1l-34,41.9c-5.7,7.1-16.1,8.1-23.2,2.4l-98.5-80.2c-7.1-5.7-8.1-16.1-2.4-23.2l34.1-41.8
	c5.7-7.1,16.1-8.1,23.2-2.4L201,173C208,178.7,209.1,189,203.3,196.1C203.3,196.1,203.3,196.1,203.3,196.1z"/>
<path class="st2" d="M174.2,216.3c-2.1,0-4.1-0.7-5.7-2c-1.9-1.5-3.1-3.7-3.3-6.1c-0.2-2.4,0.5-4.8,2-6.7c1.7-2.1,4.3-3.4,7.1-3.4
	c5-0.1,9.1,3.9,9.1,8.9c0,2.2-0.7,4.3-2.1,5.9C179.6,215.1,177,216.3,174.2,216.3z"/>
<path class="st3" d="M174.2,198.8c1.9,0,3.8,0.7,5.3,1.9c3.6,2.9,4.1,8.2,1.2,11.8c-1.6,1.9-4,3.1-6.5,3.1c-1.9,0-3.8-0.7-5.3-1.9
	c-3.6-2.9-4.1-8.2-1.2-11.8C169.3,200,171.7,198.8,174.2,198.8 M174.2,197.4L174.2,197.4c-3,0-5.8,1.3-7.6,3.6
	c-1.7,2-2.4,4.6-2.2,7.2c0.2,2.6,1.5,5,3.6,6.6c1.8,1.4,3.9,2.2,6.2,2.2c3,0,5.8-1.3,7.6-3.6c1.7-2,2.4-4.6,2.2-7.2
	c-0.2-2.6-1.5-5-3.6-6.6C178.6,198.2,176.5,197.4,174.2,197.4L174.2,197.4z"/>
<rect x="95.5" y="128" transform="matrix(0.6385 -0.7696 0.7696 0.6385 -98.5468 143.9441)" class="st4" width="16.9" height="97.7"/>
<rect x="118.1" y="131.8" transform="matrix(0.6385 -0.7696 0.7696 0.6385 -83.9723 158.3284)" class="st5" width="16.9" height="73.5"/>
<rect x="140.3" y="135.5" transform="matrix(0.6385 -0.7696 0.7696 0.6385 -69.6643 172.4579)" class="st6" width="16.9" height="49.8"/>
<path class="st7" d="M286,144.1l-14.6-27.2L255,87.6c-1-1.7-3.1-2.4-4.4-1.4l-18,9.9l-22.8,12.6c-1.7,1-2.4,3.1-1.4,4.4l0.7,1.4
	l-13.9,5.4c-1.2,0.3-2.5,0.3-3.7,0l-37.7-18.4c-1-0.3-2.7-0.7-3.7-0.3l-29.6,9.5c-1.2,0.3-2.4,0.9-3.4,1.7c0,0-9.5,7.1-18,13.3
	c-3.7,2.7-7.5,5.1-9.5,6.8c-0.4,0.2-0.7,0.4-1,0.7c-7.5,6.5,3.1,18,14.3,13.3c12.9-5.4,37.4-18,37.4-18l36.4,29.6l31.6,25.5
	l28.9-16.7l0.7-0.7l1.7,3.1c1,1.7,3.1,2.4,4.4,1.4l40.8-22.1C286.3,147.8,286.6,145.8,286,144.1z"/>
<path class="st8" d="M136,209c-3.4-2-7.7-1.4-10.5,1.4l3.4-5.8c2.4-4,1-9.2-3-11.5c0,0-0.1-0.1-0.1-0.1c-3.3-1.9-7.4-1.5-10.2,1
	l2-3.4c2.4-4.4,0.9-10-3.4-12.6c-4.4-2.7-9.9-1-12.6,3.4l-2.4,5.1c0.3-3.4-1-6.8-4.1-8.5c-3.9-2.6-9.2-1.5-11.8,2.4
	c-0.1,0.2-0.3,0.5-0.4,0.7l-6.1,9.9c-2.6,3.9-1.5,9.2,2.4,11.8c0.2,0.1,0.5,0.3,0.7,0.4c3,1.8,6.7,1.6,9.5-0.3
	c-2.1,4.3-0.5,9.5,3.7,11.9c4.1,2.4,9.5,1.4,11.9-2.7c-2.3,4.2-0.8,9.4,3.3,11.8c3.7,2.1,8.3,1.2,11-2.2c-1.3,4.8,1.6,9.8,6.5,11
	c3.9,1,8.1-0.7,10.1-4.2l4.1-6.8C142.1,216.8,140.4,211.4,136,209z"/>
</svg>
