<?xml version="1.0" encoding="utf-8"?>
<!-- Generator: Adobe Illustrator 19.2.1, SVG Export Plug-In . SVG Version: 6.00 Build 0)  -->
<svg version="1.1" id="Calque_1" xmlns="http://www.w3.org/2000/svg" xmlns:xlink="http://www.w3.org/1999/xlink" x="0px" y="0px"
	 viewBox="0 0 351 351" style="enable-background:new 0 0 351 351;" xml:space="preserve">
<style type="text/css">
	.st0{fill:url(#SVGID_1_);}
	.st1{fill:#FFFDFD;stroke:#84993E;stroke-width:1.8052;stroke-miterlimit:10;}
	.st2{fill:#FFFDFD;}
	.st3{fill:#84993E;}
	.st4{fill:#84993E;stroke:#FFFDFD;stroke-width:1.8052;stroke-miterlimit:10;}
	.st5{fill:#84993E;stroke:#FFFDFD;stroke-width:1.5662;stroke-miterlimit:10;}
	.st6{fill:#84993E;stroke:#FFFDFD;stroke-width:1.2886;stroke-miterlimit:10;}
	.st7{fill:#FCFCFC;stroke:#84993E;stroke-width:1.7;stroke-miterlimit:10;}
	.st8{fill:#FFFFFF;stroke:#84993E;stroke-width:1.7;stroke-miterlimit:10;}
</style>
<g id="back">
	
		<linearGradient id="SVGID_1_" gradientUnits="userSpaceOnUse" x1="175.7002" y1="9.78" x2="175.7002" y2="293.28" gradientTransform="matrix(1 0 0 -1 0 327.28)">
		<stop  offset="0" style="stop-color:#84993E"/>
		<stop  offset="1" style="stop-color:#BDCB8A"/>
	</linearGradient>
	<path class="st0" d="M271.8,317.5H79.6C54.4,317.5,34,297,34,271.8V79.6C34,54.4,54.4,34,79.6,34h192.2c25.2,0,45.6,20.4,45.6,45.6
		v192.2C317.5,297,297,317.5,271.8,317.5z"/>
</g>
<g id="tel">
	<path class="st1" d="M215.3,208.1l-34,41.9c-5.7,7.1-16.1,8.1-23.2,2.4l-98.5-80.2c-7.1-5.7-8.1-16.1-2.4-23.2l34.1-41.8
		c5.7-7.1,16.1-8.1,23.2-2.4L213,185C220,190.7,221.1,201.1,215.3,208.1z"/>
	<g>
		<path class="st2" d="M186.2,228.3c-2.1,0-4.1-0.7-5.7-2c-1.9-1.5-3.1-3.7-3.3-6.1c-0.2-2.4,0.5-4.8,2-6.7c1.7-2.1,4.3-3.4,7.1-3.4
			c2.1,0,4.1,0.7,5.7,2c3.9,3.2,4.5,8.9,1.3,12.8C191.6,227.1,189,228.3,186.2,228.3z"/>
		<path class="st3" d="M186.2,210.8c1.9,0,3.7,0.6,5.3,1.9c3.6,2.9,4.1,8.2,1.2,11.8c-1.7,2-4.1,3.1-6.5,3.1c-1.9,0-3.7-0.6-5.3-1.9
			c-3.6-2.9-4.1-8.2-1.2-11.8C181.4,211.9,183.8,210.8,186.2,210.8 M186.2,209.4L186.2,209.4c-3,0-5.8,1.3-7.6,3.6
			c-1.7,2-2.4,4.6-2.2,7.2s1.5,5,3.6,6.6c1.7,1.4,3.9,2.2,6.2,2.2c3,0,5.8-1.3,7.6-3.6c1.7-2,2.4-4.6,2.2-7.2
			c-0.3-2.6-1.5-5-3.6-6.6C190.7,210.2,188.5,209.4,186.2,209.4L186.2,209.4z"/>
	</g>
	
		<rect x="107.5" y="140" transform="matrix(0.6385 -0.7696 0.7696 0.6385 -103.424 157.5206)" class="st4" width="16.9" height="97.7"/>
	
		<rect x="130.1" y="143.8" transform="matrix(0.6385 -0.7696 0.7696 0.6385 -88.8616 171.8848)" class="st5" width="16.9" height="73.5"/>
	
		<rect x="152.3" y="147.5" transform="matrix(0.6385 -0.7696 0.7696 0.6385 -74.5654 186.0178)" class="st6" width="16.9" height="49.8"/>
</g>
<g id="Calque_1_1_">
	<path class="st7" d="M298,156.1l-14.6-27.2L267,99.6c-1-1.7-3.1-2.4-4.4-1.4l-18,9.9l-22.8,12.6c-1.7,1-2.4,3.1-1.4,4.4l0.7,1.4
		l-13.9,5.4c-1,0.3-2.7,0.3-3.7,0l-37.7-18.4c-1-0.3-2.7-0.7-3.7-0.3l-29.6,9.5c-1,0.3-2.7,1-3.4,1.7c0,0-9.5,7.1-18,13.3
		c-3.7,2.7-7.5,5.1-9.5,6.8c-0.3,0.3-0.7,0.3-1,0.7c-7.5,6.5,3.1,18,14.3,13.3c12.9-5.4,37.4-18,37.4-18l36.4,29.6l31.6,25.5
		l28.9-16.7c0.3-0.3,0.3-0.3,0.7-0.7l1.7,3.1c1,1.7,3.1,2.4,4.4,1.4l40.8-22.1C298.3,159.8,298.6,157.8,298,156.1z"/>
	<path class="st8" d="M148,221c-3.4-2-7.8-1.4-10.5,1.4l3.4-5.8c2.4-4.1,1-9.2-3.1-11.6c-3.4-2-7.5-1.4-10.2,1l2-3.4
		c2.4-4.4,1-9.9-3.4-12.6c-4.4-2.7-9.9-1-12.6,3.4l-2.4,5.1c0.3-3.4-1-6.8-4.1-8.5c-4.1-2.7-9.9-1.4-12.2,3.1l-6.1,9.9
		c-2.7,4.1-1.4,9.9,3.1,12.2c3.1,1.7,6.8,1.7,9.5-0.3c-2,4.1-0.7,9.2,3.7,11.9c4.1,2.4,9.5,1.4,11.9-2.7c-2.4,4.1-1,9.2,3.1,11.6
		c3.7,2.4,8.5,1.4,11.2-2c-1,3.7,0.7,8.2,4.4,10.2c4.4,2.4,9.9,0.7,12.2-3.4l4.1-6.8C154.1,228.8,152.4,223.4,148,221z"/>
</g>
</svg>
