<svg xmlns="http://www.w3.org/2000/svg" xmlns:xlink="http://www.w3.org/1999/xlink" viewBox="0 0 283.4 283.5"><defs><linearGradient id="a" x1="175.7" y1="585.5" x2="175.7" y2="302" gradientTransform="translate(0 -268)" gradientUnits="userSpaceOnUse"><stop offset="0" stop-color="#84993e"/><stop offset="1" stop-color="#bdcb8a"/></linearGradient></defs><title>iosmove2</title><path d="M271.8,317.5H79.6A45.67,45.67,0,0,1,34,271.8V79.6A45.58,45.58,0,0,1,79.6,34H271.8a45.58,45.58,0,0,1,45.6,45.6V271.8A45.6,45.6,0,0,1,271.8,317.5Z" transform="translate(-34 -34)" fill="url(#a)"/><path d="M215.3,208.1l-34,41.9a16.5,16.5,0,0,1-23.2,2.4L59.6,172.2A16.5,16.5,0,0,1,57.2,149l34.1-41.8a16.5,16.5,0,0,1,23.2-2.4L213,185A16.37,16.37,0,0,1,215.3,208.1Z" transform="translate(-34 -34)" fill="#fffdfd" stroke="#84993e" stroke-miterlimit="10" stroke-width="1.81"/><path d="M186.2,228.3a9,9,0,0,1-5.7-2,8.7,8.7,0,0,1-3.3-6.1,9.53,9.53,0,0,1,2-6.7,9.16,9.16,0,0,1,7.1-3.4,9,9,0,0,1,7,14.8A8.86,8.86,0,0,1,186.2,228.3Z" transform="translate(-34 -34)" fill="#fffdfd"/><path d="M186.2,210.8a8.22,8.22,0,0,1,5.3,1.9,8.4,8.4,0,0,1,1.2,11.8,8.6,8.6,0,0,1-6.5,3.1,8.22,8.22,0,0,1-5.3-1.9,8.4,8.4,0,0,1-1.2-11.8,8.6,8.6,0,0,1,6.5-3.1m0-1.4h0a9.58,9.58,0,0,0-7.6,3.6,9.86,9.86,0,0,0-2.2,7.2,9.18,9.18,0,0,0,3.6,6.6,9.77,9.77,0,0,0,6.2,2.2,9.58,9.58,0,0,0,7.6-3.6,9.86,9.86,0,0,0,2.2-7.2,9.54,9.54,0,0,0-3.6-6.6,9.77,9.77,0,0,0-6.2-2.2h0Z" transform="translate(-34 -34)" fill="#84993e"/><rect x="107.5" y="140.02" width="16.9" height="97.7" transform="translate(-137.44 123.51) rotate(-50.32)" fill="#84993e" stroke="#fffdfd" stroke-miterlimit="10" stroke-width="1.81"/><rect x="130.1" y="143.79" width="16.9" height="73.5" transform="translate(-122.86 137.9) rotate(-50.32)" fill="#84993e" stroke="#fffdfd" stroke-miterlimit="10" stroke-width="1.57"/><rect x="152.3" y="147.48" width="16.9" height="49.8" transform="translate(-108.56 152.03) rotate(-50.32)" fill="#84993e" stroke="#fffdfd" stroke-miterlimit="10" stroke-width="1.29"/><path d="M298,156.1l-14.6-27.2L267,99.6c-1-1.7-3.1-2.4-4.4-1.4l-18,9.9-22.8,12.6c-1.7,1-2.4,3.1-1.4,4.4l0.7,1.4-13.9,5.4a7.72,7.72,0,0,1-3.7,0l-37.7-18.4c-1-.3-2.7-0.7-3.7-0.3l-29.6,9.5a9.88,9.88,0,0,0-3.4,1.7s-9.5,7.1-18,13.3c-3.7,2.7-7.5,5.1-9.5,6.8a6.07,6.07,0,0,0-1,.7c-7.5,6.5,3.1,18,14.3,13.3,12.9-5.4,37.4-18,37.4-18l36.4,29.6,31.6,25.5,28.9-16.7,0.7-.7,1.7,3.1c1,1.7,3.1,2.4,4.4,1.4l40.8-22.1C298.3,159.8,298.6,157.8,298,156.1Z" transform="translate(-34 -34)" fill="#fcfcfc" stroke="#84993e" stroke-miterlimit="10" stroke-width="1.7"/><path d="M148,221a8.62,8.62,0,0,0-10.5,1.4l3.4-5.8a8.41,8.41,0,0,0-3.1-11.6,8.7,8.7,0,0,0-10.2,1l2-3.4a9.41,9.41,0,0,0-3.4-12.6c-4.4-2.7-9.9-1-12.6,3.4l-2.4,5.1c0.3-3.4-1-6.8-4.1-8.5a8.51,8.51,0,0,0-12.2,3.1L88.8,203a8.51,8.51,0,0,0,3.1,12.2,8.81,8.81,0,0,0,9.5-.3,9.15,9.15,0,0,0,3.7,11.9c4.1,2.4,9.5,1.4,11.9-2.7a8.64,8.64,0,0,0,14.3,9.6,9.05,9.05,0,0,0,16.6,6.8l4.1-6.8C154.1,228.8,152.4,223.4,148,221Z" transform="translate(-34 -34)" fill="#fff" stroke="#84993e" stroke-miterlimit="10" stroke-width="1.7"/></svg>