<?xml version="1.0" encoding="utf-8"?>
<!-- Generator: Adobe Illustrator 19.1.0, SVG Export Plug-In . SVG Version: 6.00 Build 0)  -->
<svg version="1.1" id="Calque_1" xmlns="http://www.w3.org/2000/svg" xmlns:xlink="http://www.w3.org/1999/xlink" x="0px" y="0px"
	 viewBox="-205 206.9 155.1 155" style="enable-background:new -205 206.9 155.1 155;" xml:space="preserve">
<style type="text/css">
	.st0{display:none;}
	.st1{display:inline;fill:#F6F6F6;stroke:#050506;stroke-miterlimit:10;}
	.st2{fill:none;}
	.st3{opacity:0.75;fill:#BDBDBD;enable-background:new    ;}
	.st4{opacity:0.75;fill:#246482;enable-background:new    ;}
	.st5{opacity:0.75;fill:#EAC173;enable-background:new    ;}
	.st6{display:inline;opacity:0.81;fill:#FFFFFF;stroke:#FFFFFF;stroke-miterlimit:10;enable-background:new    ;}
</style>
<g id="Calque_1_1_" class="st0">
</g>
<g id="init" class="st0">
	<path class="st1" d="M-134.7,1458.8c0,0,11.1,0,11.6,0c0.7,0,0.8,0.5,0.8,0.5l-0.1,13c-0.1,0.8-0.9,0.3-0.9,0.3l-11.6-4.2
		c-0.3-0.1-0.4-0.5-0.4-0.5s0-8.4,0-8.9S-134.7,1458.8-134.7,1458.8z"/>
	<path class="st1" d="M-135.8,1450c0,0,15.6,0,16.9,0c0.8,0,1,0.8,1,0.8s0,15.1,0,16.1s-1.2,0.7-1.2,0.7l-16.7-3.7
		c-0.5-0.1-0.5-0.9-0.5-0.9s0-11.7,0-12.3C-136.3,1450.1-135.8,1450-135.8,1450z"/>
	<path class="st1" d="M-138.5,1457.5c0-0.5,0.5-0.5,0.5-0.5l7.7-0.9c0.3-0.1,0.3,0.2,0.3,0.2s0,5.7,0,5.9c0,0.3-0.2,0.3-0.2,0.3
		s-7.6,2.4-7.9,2.5c-0.3,0.1-0.4-0.2-0.4-0.2V1457.5L-138.5,1457.5z"/>
</g>
<path id="boder" class="st2" d="M-65.9,361.9H-188c-8.8,0-16-7.1-16-16V223.8c0-8.8,7.1-16,16-16h122.1c8.8,0,16,7.1,16,16v122.1
	C-49.9,354.7-57.1,361.9-65.9,361.9z"/>
<path class="st3" d="M-168.1,270.3c0,0,66.4,0,70.1,0c3.6,0,4.8,3.3,4.8,3.3l-0.3,78.6c-0.4,4.6-4.9,1.8-4.9,1.8l-69.6-24.7
	c-2.3-0.4-2.4-3.2-2.4-3.2s0-50.7,0-53.1C-170.5,270.8-168.1,270.3-168.1,270.3z"/>
<path class="st4" d="M-174.9,217.5c0,0,93.2,0,101.1,0c4.9,0,5.8,4.6,5.8,4.6s0,90.7,0,96.7c0,6.1-7,3.7-7,3.7l-100-22
	c-3.2-0.8-3.1-5.3-3.1-5.3s0-70.2,0-73.9C-178,217.7-174.9,217.5-174.9,217.5z"/>
<path class="st5" d="M-191.3,262.9c0-3.1,3.2-3.3,3.2-3.3l46.1-5.5c1.9-0.4,1.9,1,1.9,1s0,33.9,0,35.9s-1.3,2-1.3,2
	s-45.5,14.4-47,14.9c-1.6,0.5-2.7-1-2.7-1v-44H-191.3z"/>
<g id="logo" class="st0">
	<path class="st6" d="M-175.4,1445.6c0,0,66.4,0,70.1,0c3.6,0,4.8,3.3,4.8,3.3l-0.3,78.6c-0.4,4.6-4.9,1.8-4.9,1.8l-69.5-24.7
		c-2.3-0.4-2.4-3.2-2.4-3.2s0-50.7,0-53.1C-177.8,1446-175.4,1445.6-175.4,1445.6z"/>
	<path class="st6" d="M-182.2,1392.7c0,0,93.2,0,101.1,0c4.9,0,5.8,4.6,5.8,4.6s0,90.7,0,96.7c0,6.1-7,3.7-7,3.7l-100-22
		c-3.2-0.8-3.1-5.3-3.1-5.3s0-70.2,0-73.9C-185.2,1392.9-182.2,1392.7-182.2,1392.7z"/>
	<path class="st6" d="M-198.6,1438.1c0-3.1,3.2-3.3,3.2-3.3l46.1-5.5c1.9-0.4,1.9,1,1.9,1s0,33.9,0,35.9s-1.3,2-1.3,2
		s-45.5,14.4-47,14.9c-1.6,0.5-2.7-1-2.7-1L-198.6,1438.1z"/>
</g>
</svg>
