<?xml version="1.0" encoding="utf-8"?>
<!-- Generator: Adobe Illustrator 19.1.0, SVG Export Plug-In . SVG Version: 6.00 Build 0)  -->
<svg version="1.2" baseProfile="tiny" xmlns="http://www.w3.org/2000/svg" xmlns:xlink="http://www.w3.org/1999/xlink" x="0px"
	 y="0px" viewBox="0 0 465.5 465.5" xml:space="preserve">
<g id="initworkspace" display="none">
	<rect x="-50.7" y="-50.7" display="inline" fill="#D900FF" width="566.9" height="566.9"/>
</g>
<g id="shadow" display="none">
	<g display="inline">
		<path fill="#6EAFD4" stroke="#FFFFFF" stroke-miterlimit="10" d="M220.5,195.3l49.1-65.8l185.8,59.9C435.1,84.9,343.2,6,232.8,6h0
			C107.5,6,6,107.5,6,232.8v0C6,358,107.5,459.5,232.8,459.5h0c34.5,0,67.2-7.7,96.4-21.5L190,302.6L220.5,195.3z"/>
		<path fill="#6EAFD4" stroke="#FFFFFF" stroke-miterlimit="10" d="M455.5,189.9l2,12.5C457,198.2,456.3,194.1,455.5,189.9z"/>
		<path fill="#FFFFFF" d="M455.4,189.4L455.4,189.4c0,0.2,0.1,0.3,0.1,0.5L455.4,189.4z"/>
		<path fill="#3683BB" stroke="#3683BB" stroke-miterlimit="10" d="M458.5,231.8L458.5,231.8c0-10.3-0.7-20.4-2-30.4l-2-12.5
			c0-0.2-0.1-0.4-0.1-0.5l-185.8-59.9l-49.1,65.8L189,301.6l139.2,135.4C405.2,400.8,458.5,322.5,458.5,231.8z"/>
	</g>
</g>
<g id="circle">
	<rect x="6" y="6" display="none" fill="#6EAFD4" width="453.5" height="453.5"/>
</g>
<g id="shadowcircle">
	<g>
		<path fill="#6EAFD4" d="M232.8,462.5c-61.4,0-119.1-23.9-162.5-67.3C26.9,351.8,3,294.1,3,232.8S26.9,113.7,70.3,70.3
			C113.7,26.9,171.4,3,232.8,3c61.4,0,119.1,23.9,162.5,67.3c43.4,43.4,67.3,101.1,67.3,162.5c0,61.4-23.9,119.1-67.3,162.5
			S294.1,462.5,232.8,462.5z"/>
		<path fill="#FFFFFF" d="M232.8,6C358,6,459.5,107.5,459.5,232.8v0c0,125.2-101.5,226.8-226.8,226.8h0C107.5,459.5,6,358,6,232.8v0
			C6,107.5,107.5,6,232.8,6L232.8,6 M232.8,0c-31.4,0-61.9,6.2-90.6,18.3c-27.7,11.7-52.6,28.5-74,49.9s-38.2,46.3-49.9,74
			C6.2,170.9,0,201.4,0,232.8c0,31.4,6.2,61.9,18.3,90.6c11.7,27.7,28.5,52.6,49.9,74c21.4,21.4,46.3,38.2,74,49.9
			c28.7,12.1,59.2,18.3,90.6,18.3c31.4,0,61.9-6.2,90.6-18.3c27.7-11.7,52.6-28.5,74-49.9c21.4-21.4,38.2-46.3,49.9-74
			c12.1-28.7,18.3-59.2,18.3-90.6c0-31.4-6.2-61.9-18.3-90.6c-11.7-27.7-28.5-52.6-49.9-74c-21.4-21.4-46.3-38.2-74-49.9
			C294.7,6.2,264.2,0,232.8,0L232.8,0z"/>
	</g>
	<g>
		<path display="none" fill="#6EAFD4" d="M204.4,205.6l73.5-107.2l173.3,73.3C424.6,76.1,336.9,6,232.8,6h0C107.5,6,6,107.5,6,232.8
			v0C6,358,107.5,459.5,232.8,459.5h0c15.8,0,31.1-1.6,46-4.7L176.5,328.9L204.4,205.6z"/>
		<path fill="#3683BB" d="M459.5,232.8L459.5,232.8c0-21.2-2.9-41.6-8.3-61.1L277.9,98.4l-73.5,107.2l-27.9,123.4l102.3,125.9
			C381.9,433.6,459.5,342.3,459.5,232.8z"/>
	</g>
</g>
<g id="name">
	<g>
		<path fill="#FFFFFF" d="M134.7,369.5h3.5v22.7h13v3.1h-16.5V369.5z"/>
		<path fill="#FFFFFF" d="M176,373.2c1.7,2.3,2.6,5.2,2.6,8.8c0,3.9-1,7.1-2.9,9.6c-2.3,3-5.6,4.5-9.8,4.5c-4,0-7.1-1.3-9.4-3.9
			c-2-2.5-3-5.7-3-9.6c0-3.5,0.9-6.5,2.6-9c2.2-3.2,5.5-4.8,9.9-4.8C170.4,368.8,173.8,370.3,176,373.2z M172.9,389.7
			c1.4-2.2,2.1-4.8,2.1-7.6c0-3-0.8-5.5-2.4-7.3c-1.6-1.9-3.8-2.8-6.5-2.8c-2.7,0-4.9,0.9-6.5,2.8c-1.7,1.8-2.5,4.5-2.5,8.1
			c0,2.9,0.7,5.3,2.2,7.2c1.4,2,3.8,2.9,7,2.9C169.3,393,171.5,391.9,172.9,389.7z"/>
		<path fill="#FFFFFF" d="M183.5,369.5h3.5v25.8h-3.5V369.5z"/>
		<path fill="#FFFFFF" d="M211,371.4c1.8,1.7,2.8,3.7,3,5.9h-3.4c-0.4-1.7-1.1-3-2.3-4c-1.1-1-2.7-1.5-4.8-1.5
			c-2.5,0-4.5,0.9-6.1,2.7c-1.5,1.8-2.3,4.5-2.3,8.2c0,3,0.7,5.5,2.1,7.4c1.4,1.9,3.5,2.8,6.2,2.8c2.5,0,4.5-1,5.8-3
			c0.7-1,1.2-2.4,1.6-4.1h3.4c-0.3,2.7-1.3,5-3,6.8c-2,2.2-4.8,3.3-8.2,3.3c-3,0-5.5-0.9-7.5-2.7c-2.7-2.4-4-6.1-4-11.1
			c0-3.8,1-6.9,3-9.4c2.2-2.7,5.1-4,8.9-4C206.7,368.8,209.2,369.7,211,371.4z"/>
		<path fill="#FFFFFF" d="M228.8,369.5h10.3c3.5,0,6.2,1.3,8.2,3.8c1.7,2.3,2.6,5.2,2.6,8.7c0,2.7-0.5,5.2-1.5,7.4
			c-1.8,3.9-4.9,5.9-9.2,5.9h-10.3V369.5z M238.5,392.4c1.2,0,2.1-0.1,2.9-0.4c1.3-0.5,2.4-1.3,3.3-2.6c0.7-1,1.2-2.4,1.5-4
			c0.2-1,0.3-1.9,0.3-2.7c0-3.2-0.6-5.7-1.9-7.5c-1.2-1.8-3.2-2.7-6-2.7h-6.1v19.8H238.5z"/>
		<path fill="#FFFFFF" d="M255.5,369.5h3.5v25.8h-3.5V369.5z"/>
		<path fill="#FFFFFF" d="M266.7,369.5l7.4,22l7.3-22h3.9l-9.4,25.8h-3.7l-9.4-25.8H266.7z"/>
		<path fill="#FFFFFF" d="M293.6,369.5h3.9l9.4,25.8h-3.8l-2.7-7.7h-10.1l-2.8,7.7h-3.6L293.6,369.5z M299.4,384.8l-4-11.4
			l-4.1,11.4H299.4z"/>
		<path fill="#FFFFFF" d="M310.2,369.5h10.3c3.5,0,6.2,1.3,8.2,3.8c1.7,2.3,2.6,5.2,2.6,8.7c0,2.7-0.5,5.2-1.5,7.4
			c-1.8,3.9-4.9,5.9-9.2,5.9h-10.3V369.5z M319.9,392.4c1.2,0,2.1-0.1,2.9-0.4c1.3-0.5,2.4-1.3,3.3-2.6c0.7-1,1.2-2.4,1.5-4
			c0.2-1,0.3-1.9,0.3-2.7c0-3.2-0.6-5.7-1.9-7.5s-3.2-2.7-6-2.7h-6.1v19.8H319.9z"/>
	</g>
</g>
<g id="letter">
	<g>
		<path fill="#FFFFFF" d="M200.5,327.8c18.3,1.5,44.9-25.9,59.7-55.1c2.7-4.9,6.8-5.3,8.4,0c1.9,6.1,0.4,14.4-3.8,23.6
			c-5.3,11.4-33.1,43-63.5,42.2c-26.2-0.8-40.3-19-31.6-60.1c14.1-66.2,57.4-135,96.2-175.3c5.7-6.1,11-6.8,16.3-1.9
			c11,9.9,13.3,24,8.7,41.8c-11.8,46.8-54.4,92.4-88.2,114.4C187.6,294.7,183.4,326.2,200.5,327.8z M278.1,135
			c-4.9-3-33.1,39.2-59.3,87.8c-3.4,6.1-6.5,12.2-9.1,18.2C261.7,198.9,283,138,278.1,135z"/>
	</g>
	<g>
	</g>
	<g>
	</g>
	<g>
	</g>
	<g>
	</g>
	<g>
	</g>
	<g>
	</g>
</g>
</svg>
