<svg xmlns="http://www.w3.org/2000/svg" viewBox="0 0 465.6 465.6"><title>lmd</title><path d="M232.8,462.5A229.74,229.74,0,0,1,70.3,70.3a229.81,229.81,0,0,1,325,325A228.36,228.36,0,0,1,232.8,462.5Z" transform="translate(0 0)" fill="#6eafd4"/><path d="M232.8,6C358,6,459.5,107.5,459.5,232.8h0C459.5,358,358,459.6,232.7,459.6h0C107.5,459.5,6,358,6,232.8H6C6,107.5,107.5,6,232.8,6h0m0-6a232.07,232.07,0,1,0,90.6,18.3A232.07,232.07,0,0,0,232.8,0h0Z" transform="translate(0 0)" fill="#fff"/><path d="M459.5,232.8h0a228.16,228.16,0,0,0-8.3-61.1L277.9,98.4,204.4,205.6,176.5,329,278.8,454.9C381.9,433.6,459.5,342.3,459.5,232.8Z" transform="translate(0 0)" fill="#3683bb"/><path d="M134.7,369.5h3.5v22.7h13v3.1H134.7V369.5Z" transform="translate(0 0)" fill="#fff"/><path d="M176,373.2a14.37,14.37,0,0,1,2.6,8.8,15.44,15.44,0,0,1-2.9,9.6,11.66,11.66,0,0,1-9.8,4.5,11.86,11.86,0,0,1-9.4-3.9,14.89,14.89,0,0,1-3-9.6,15.65,15.65,0,0,1,2.6-9q3.3-4.8,9.9-4.8C170.4,368.8,173.8,370.3,176,373.2Zm-3.1,16.5a14,14,0,0,0,2.1-7.6,10.71,10.71,0,0,0-2.4-7.3,8.94,8.94,0,0,0-13,0c-1.7,1.8-2.5,4.5-2.5,8.1a11.24,11.24,0,0,0,2.2,7.2c1.4,2,3.8,2.9,7,2.9A7.26,7.26,0,0,0,172.9,389.7Z" transform="translate(0 0)" fill="#fff"/><path d="M183.5,369.5H187v25.8h-3.5V369.5Z" transform="translate(0 0)" fill="#fff"/><path d="M211,371.4a9.14,9.14,0,0,1,3,5.9h-3.4a7,7,0,0,0-2.3-4,6.9,6.9,0,0,0-4.8-1.5,7.76,7.76,0,0,0-6.1,2.7c-1.5,1.8-2.3,4.5-2.3,8.2a12.23,12.23,0,0,0,2.1,7.4,7.22,7.22,0,0,0,6.2,2.8,6.54,6.54,0,0,0,5.8-3,12.09,12.09,0,0,0,1.6-4.1h3.4a11.5,11.5,0,0,1-3,6.8,10.62,10.62,0,0,1-8.2,3.3,10.79,10.79,0,0,1-7.5-2.7c-2.7-2.4-4-6.1-4-11.1a14.51,14.51,0,0,1,3-9.4,10.75,10.75,0,0,1,8.9-4C206.7,368.8,209.2,369.7,211,371.4Z" transform="translate(0 0)" fill="#fff"/><path d="M228.8,369.5h10.3a9.93,9.93,0,0,1,8.2,3.8,14.26,14.26,0,0,1,2.6,8.7,17.79,17.79,0,0,1-1.5,7.4,9.46,9.46,0,0,1-9.2,5.9H228.9V369.5h-0.1Zm9.7,22.9a8.12,8.12,0,0,0,2.9-.4,6.87,6.87,0,0,0,3.3-2.6,10.45,10.45,0,0,0,1.5-4,13.9,13.9,0,0,0,.3-2.7c0-3.2-.6-5.7-1.9-7.5s-3.2-2.7-6-2.7h-6.1v19.8h6v0.1Z" transform="translate(0 0)" fill="#fff"/><path d="M255.5,369.5H259v25.8h-3.5V369.5Z" transform="translate(0 0)" fill="#fff"/><path d="M266.7,369.5l7.4,22,7.3-22h3.9l-9.4,25.8h-3.7l-9.4-25.8h3.9Z" transform="translate(0 0)" fill="#fff"/><path d="M293.6,369.5h3.9l9.4,25.8h-3.8l-2.7-7.7H290.3l-2.8,7.7h-3.6Zm5.8,15.3-4-11.4-4.1,11.4h8.1Z" transform="translate(0 0)" fill="#fff"/><path d="M310.2,369.5h10.3a9.93,9.93,0,0,1,8.2,3.8,14.26,14.26,0,0,1,2.6,8.7,17.79,17.79,0,0,1-1.5,7.4,9.46,9.46,0,0,1-9.2,5.9H310.3V369.5h-0.1Zm9.7,22.9a8.12,8.12,0,0,0,2.9-.4,6.87,6.87,0,0,0,3.3-2.6,10.45,10.45,0,0,0,1.5-4,13.9,13.9,0,0,0,.3-2.7c0-3.2-.6-5.7-1.9-7.5s-3.2-2.7-6-2.7h-6.1v19.8h6v0.1Z" transform="translate(0 0)" fill="#fff"/><path d="M200.5,327.8c18.3,1.5,44.9-25.9,59.7-55.1,2.7-4.9,6.8-5.3,8.4,0,1.9,6.1.4,14.4-3.8,23.6-5.3,11.4-33.1,43-63.5,42.2-26.2-.8-40.3-19-31.6-60.1,14.1-66.2,57.4-135,96.2-175.3,5.7-6.1,11-6.8,16.3-1.9,11,9.9,13.3,24,8.7,41.8-11.8,46.8-54.4,92.4-88.2,114.4C187.6,294.7,183.4,326.2,200.5,327.8ZM278.1,135c-4.9-3-33.1,39.2-59.3,87.8-3.4,6.1-6.5,12.2-9.1,18.2C261.7,198.9,283,138,278.1,135Z" transform="translate(0 0)" fill="#fff"/></svg>