<svg xmlns="http://www.w3.org/2000/svg" viewBox="0 0 298.9 299"><title>MLdemo</title><path d="M150,1.1a149,149,0,1,0,149,149A148.84,148.84,0,0,0,150,1.1ZM150,284A134,134,0,1,1,284,150,134,134,0,0,1,150,284Z" transform="translate(-0.6 -0.6)" fill="#e45621" stroke="#e45621" stroke-miterlimit="10"/><path d="M257.6,194.5H174.5v2.1a1.87,1.87,0,0,1-2.1,1.5H125.1a1.87,1.87,0,0,1-2.1-1.5v-2.1H33v10c0,3.8,4.3,6.7,9.6,6.7h215c5.3,0,9.6-3.1,9.6-6.7v-9.9h-9.6v-0.1Z" transform="translate(-0.6 -0.6)" fill="#e45621"/><path d="M223.5,62.9H76.7A18.16,18.16,0,0,0,58.6,81V187a2.65,2.65,0,0,0,2.6,2.6H239a2.65,2.65,0,0,0,2.6-2.6V81.1A18.25,18.25,0,0,0,223.5,62.9Zm-55.7,74.4-6.6,1.6a20.29,20.29,0,0,1-.9,4.8l5.5,3.9a1.17,1.17,0,0,1,.3,1.4c-0.5,1-1,2.1-1.5,3.1a1.14,1.14,0,0,1-1.3.6l-6.4-1.9a27.33,27.33,0,0,1-3.2,3.7l2.8,6.1a1,1,0,0,1-.4,1.3l-2.8,1.9a1.08,1.08,0,0,1-1.4-.2l-4.6-4.9a25.07,25.07,0,0,1-4.6,1.6l-0.6,6.7a1.16,1.16,0,0,1-1,1c-1.1.1-2.3,0.2-3.4,0.2a1.08,1.08,0,0,1-1.1-.8l-1.6-6.5a27,27,0,0,1-4.8-.9l-3.9,5.5a1.17,1.17,0,0,1-1.4.3c-1-.5-2.1-1-3.1-1.5a1.14,1.14,0,0,1-.6-1.3l1.9-6.4a22.36,22.36,0,0,1-3.7-3.2l-6.1,2.8a1,1,0,0,1-1.3-.4l-1.9-2.8a1.08,1.08,0,0,1,.2-1.4l4.9-4.6a25.06,25.06,0,0,1-1.6-4.6l-6.7-.6a1.16,1.16,0,0,1-1-1c-0.1-1.1-.2-2.3-0.2-3.4a1.08,1.08,0,0,1,.8-1.1l6.5-1.6a27,27,0,0,1,.9-4.8l-5.5-3.9a1.06,1.06,0,0,1-.3-1.3c0.5-1,1-2.1,1.5-3.1a1.14,1.14,0,0,1,1.3-.6l6.4,1.9a27.33,27.33,0,0,1,3.2-3.7l-2.8-6.1a1,1,0,0,1,.4-1.3l2.8-1.9a1.08,1.08,0,0,1,1.4.2l4.6,4.9a28,28,0,0,1,4.6-1.6l0.6-6.7a1.16,1.16,0,0,1,1-1c1.1-.1,2.3-0.2,3.4-0.2a1.08,1.08,0,0,1,1.1.8l1.6,6.5a27,27,0,0,1,4.8.9l3.9-5.5a1.19,1.19,0,0,1,1.4-.4c1,0.5,2,1,3.1,1.5a1.14,1.14,0,0,1,.6,1.3l-1.9,6.4a27.33,27.33,0,0,1,3.7,3.2l6.1-2.8a1.17,1.17,0,0,1,1.4.4l1.9,2.8a1.08,1.08,0,0,1-.2,1.4l-4.9,4.6a25.07,25.07,0,0,1,1.6,4.6l6.7,0.6a1.07,1.07,0,0,1,1,1c0.1,1.1.2,2.3,0.2,3.4A0.92,0.92,0,0,1,167.8,137.3Zm27.9-31c-0.2,1.1-.4,2.3-0.7,3.4a1.17,1.17,0,0,1-1.1.9l-6-.2a16.09,16.09,0,0,1-3,4.5l2.5,5.5a1.17,1.17,0,0,1-.4,1.4l-2.8,1.9a1.08,1.08,0,0,1-1.4-.2l-4.2-4.4a16.15,16.15,0,0,1-5.2,1.1l-2.1,5.7a1.13,1.13,0,0,1-1.2.7c-1.1-.2-2.3-0.4-3.4-0.7a1.17,1.17,0,0,1-.9-1.1l0.2-6a16.08,16.08,0,0,1-4.5-3l-5.5,2.5a1.17,1.17,0,0,1-1.4-.4l-1.9-2.8a1.08,1.08,0,0,1,.2-1.4l4.3-4.1a16.18,16.18,0,0,1-1.1-5.3l-5.7-2.1a1.13,1.13,0,0,1-.7-1.2c0.2-1.1.4-2.3,0.7-3.4a1.17,1.17,0,0,1,1.1-.9l6,0.2a18.17,18.17,0,0,1,2.9-4.5l-2.5-5.5a1.17,1.17,0,0,1,.4-1.4l2.8-1.9a1.08,1.08,0,0,1,1.4.2l4.1,4.4a19.25,19.25,0,0,1,5.3-1.1l2.1-5.7a1.14,1.14,0,0,1,.8-0.7h0.4l3.4,0.6a1.17,1.17,0,0,1,.9,1.1l-0.2,6a16.08,16.08,0,0,1,4.5,3l5.5-2.5a1,1,0,0,1,1.3.4l1.9,2.8a1.08,1.08,0,0,1-.2,1.4l-4.4,4.1a16.18,16.18,0,0,1,1.1,5.3l5.7,2.1A1.24,1.24,0,0,1,195.7,106.3Z" transform="translate(-0.6 -0.6)" fill="#e45621"/><path d="M172.2,93.7a9.84,9.84,0,0,0-5.1,1.8,5.55,5.55,0,0,0-.8.6,9.92,9.92,0,0,0,13,15h0a10,10,0,0,0,1-14A10.19,10.19,0,0,0,172.2,93.7Z" transform="translate(-0.6 -0.6)" fill="#e45621"/><path d="M136.2,120.2a16.8,16.8,0,0,0-8.5,3,14.7,14.7,0,0,0-1.3,1,16.52,16.52,0,1,0,21.6,25l0.1-.1a16.48,16.48,0,0,0,1.6-23.3A16.82,16.82,0,0,0,136.2,120.2Z" transform="translate(-0.6 -0.6)" fill="#e45621"/></svg>