<svg xmlns="http://www.w3.org/2000/svg" viewBox="0 0 278.7 304.44"><title>pandascorp2</title><path d="M114.4,80.4c-6.9-13-17-11.5-17-11.5-1.9,16.4.1,23,2.6,19.9a11.83,11.83,0,0,1,5.8-3.9L80.4,158.5,105,208.2,65,159.8,91.7,99.3,86.5,77.6,99.3,58.5,119,76.6S122.8,77.4,114.4,80.4Z" transform="translate(-9.1 -5.18)" fill="#45b29d" stroke="#45b29d" stroke-miterlimit="10" stroke-width="2"/><path d="M184.9,80.4c6.9-13,17-11.5,17-11.5,1.9,16.4-.1,23-2.6,19.9a11.83,11.83,0,0,0-5.8-3.9l25.4,73.6-24.6,49.7,40.1-48.4L207.7,99.3l5.2-21.7L200,58.5,180.4,76.6C180.3,76.6,176.5,77.4,184.9,80.4Z" transform="translate(-9.1 -5.18)" fill="#45b29d" stroke="#45b29d" stroke-miterlimit="10" stroke-width="2"/><path d="M169,162.7l-2.9,5-2.4,2.5-9.8,3.5-2.7-.9-0.3-9.7,12.5-20s-12,4.7-14.4,7.4c-2.6-2.5-15-6.1-15-6.1l14.4,18.8,0.6,9.7-2.6,1.1-10.1-2.6-2.6-2.2-3.4-4.7s-1.1-.4-0.4.7,3.5,4.7,3.5,4.7l2.7,2.2,10.5,2.6,3.5-.8,3.6,0.5,10.2-3.6,2.5-2.4s2.5-3.9,3.1-5S169,162.7,169,162.7Z" transform="translate(-9.1 -5.18)" fill="#45b29d" stroke="#45b29d" stroke-miterlimit="10"/><path d="M282.8,92.5a22.94,22.94,0,0,0-12.6-20.4L149.4,11.4l-0.9-.5-0.9.5L26.6,72.1A22.84,22.84,0,0,0,14.1,92.5V221.8a22.84,22.84,0,0,0,12.5,20.4l120.9,61.2,0.9,0.5,0.9-.5,120.9-61.2a22.84,22.84,0,0,0,12.5-20.4V92.5h0.1Z" transform="translate(-9.1 -5.18)" fill="none" stroke="#45b29d" stroke-miterlimit="10" stroke-width="10"/><path d="M140.2,103.4a5.27,5.27,0,0,0-2-1.5c-1-.6-3,0-3,0s-11.4,3.6-14.1,4.4a10.67,10.67,0,0,0-4.7,3.5l-6.7,15s11.4,6.2,13.8,5.6c3.1-2.2,19.6-7.6,19.6-7.6Zm-2,18.6s-8.4,3.3-13.8,5.2-7.6-3.1-7.7-4.5c-1.8-4.8,4.1-12.9,4.1-12.9,12.3-2.3,18.1-5.7,18.1-5.7s0.5,3.6.9,7.3a0.1,0.1,0,0,0-.1-0.1s-0.6-.2-1.7-0.5-5.7.6-6.8,1.1-6.2,7.2-6.2,7.2c-0.2,1.2.8,1.2,1.3,0.3l0.7-1.1c6.3-5.8,12.8-5.8,12.8-5.8s0.1-.1.2-0.1c0.3,2.8.6,5.4,0.6,6.3C140.6,121,138.2,122,138.2,122Z" transform="translate(-9.1 -5.18)" fill="#45b29d"/><path d="M154,122.7s16.5,5.4,19.6,7.6c2.4,0.6,13.8-5.6,13.8-5.6l-6.7-15a10,10,0,0,0-4.7-3.5c-2.7-.8-14.1-4.4-14.1-4.4a4.75,4.75,0,0,0-3,0,6.18,6.18,0,0,0-2,1.5Zm2.6-3.9c0-.9.3-3.5,0.6-6.3,0,0.1.1,0.1,0.2,0.1s6.5,0,12.8,5.8l0.7,1.1c0.5,0.9,1.5.9,1.3-.3,0,0-5.1-6.7-6.2-7.2s-5.7-1.4-6.8-1.1a15,15,0,0,0-1.7.5l-0.1.1c0.4-3.7.9-7.3,0.9-7.3s5.8,3.3,18.1,5.7c0,0,5.9,8.1,4.1,12.9,0,1.4-2.3,6.5-7.7,4.5L159,122.1S156.6,121,156.6,118.8Z" transform="translate(-9.1 -5.18)" fill="#45b29d"/><path d="M150.7,191.8" transform="translate(-9.1 -5.18)" fill="#3d80b1"/><polygon points="141.6 210.82 132.1 198.62 151 198.62 141.6 210.82" fill="#45b29d"/><polygon points="141.6 210.82 127.5 258.72 141.6 264.22 155.6 258.72 141.6 210.82" fill="#45b29d"/><path d="M65,247.9c0-12.1,18.5-48.5,33.6-48.5-16.8,23.4-6.2,63-6.2,63Z" transform="translate(-9.1 -5.18)" fill="#45b29d" stroke="#4ab19d" stroke-miterlimit="10"/><path d="M233.6,247.9c0-12.1-18.5-48.5-33.6-48.5,16.8,23.4,6.2,63,6.2,63Z" transform="translate(-9.1 -5.18)" fill="#45b29d" stroke="#4ab19d" stroke-miterlimit="10"/></svg>