<?xml version="1.0" encoding="utf-8"?>
<!-- Generator: Adobe Illustrator 19.2.1, SVG Export Plug-In . SVG Version: 6.00 Build 0)  -->
<svg version="1.1" id="Calque_1" xmlns="http://www.w3.org/2000/svg" xmlns:xlink="http://www.w3.org/1999/xlink" x="0px" y="0px"
	 viewBox="0 0 294.4 315.2" style="enable-background:new 0 0 294.4 315.2;" xml:space="preserve">
<style type="text/css">
	.st0{fill:#45B29D;stroke:#45B29D;stroke-width:2;stroke-miterlimit:10;}
	.st1{fill:#45B29D;stroke:#45B29D;stroke-miterlimit:10;}
	.st2{fill:none;stroke:#45B29D;stroke-width:10;stroke-miterlimit:10;}
	.st3{fill:#45B29D;}
	.st4{fill:#3D80B1;}
</style>
<path class="st0" d="M114.4,80.4c-6.9-13-17-11.5-17-11.5c-1.9,16.4,0.1,23,2.6,19.9s5.8-3.9,5.8-3.9l-25.4,73.6l24.6,49.7l-40-48.4
	l26.7-60.5l-5.2-21.7l12.8-19.1L119,76.6C119,76.6,122.8,77.4,114.4,80.4z"/>
<path class="st0" d="M184.9,80.4c6.9-13,17-11.5,17-11.5c1.9,16.4-0.1,23-2.6,19.9s-5.8-3.9-5.8-3.9l25.4,73.6l-24.6,49.7l40.1-48.4
	l-26.7-60.5l5.2-21.7L200,58.5l-19.6,18.1C180.3,76.6,176.5,77.4,184.9,80.4z"/>
<path class="st1" d="M169,162.7l-2.9,5l-2.4,2.5l-9.8,3.5l-2.7-0.9l-0.3-9.7l12.5-20c0,0-12,4.7-14.4,7.4c-2.6-2.5-15-6.1-15-6.1
	l14.4,18.8l0.6,9.7l-2.6,1.1l-10.1-2.6l-2.6-2.2l-3.4-4.7c0,0-1.1-0.4-0.4,0.7c0.6,1.1,3.5,4.7,3.5,4.7l2.7,2.2l10.5,2.6l3.5-0.8
	l3.6,0.5l10.2-3.6l2.5-2.4c0,0,2.5-3.9,3.1-5C170,162.3,169,162.7,169,162.7z"/>
<g id="S2NQzZ.tif_2_">
	<path class="st2" d="M282.8,92.5c0-8.6-4.9-16.5-12.6-20.4L149.4,11.4l-0.9-0.5l-0.9,0.5l-121,60.7C18.9,76,14.1,83.9,14.1,92.5
		v129.3c0,8.6,4.8,16.5,12.5,20.4l120.9,61.2l0.9,0.5l0.9-0.5l120.9-61.2c7.7-3.9,12.5-11.8,12.5-20.4V92.5H282.8z"/>
	
		<image style="display:none;overflow:visible;enable-background:new    ;" width="2181" height="2340" id="Layer_0_1_" xlink:href="5D8292A310A61A05.png"  transform="matrix(8.099027e-02 0 0 8.138505e-02 60.1038 54.5405)">
	</image>
</g>
<path class="st3" d="M140.2,103.4c-0.6-0.8-1-0.9-2-1.5s-3,0-3,0s-11.4,3.6-14.1,4.4s-4.7,3.5-4.7,3.5l-6.7,15
	c0,0,11.4,6.2,13.8,5.6c3.1-2.2,19.6-7.6,19.6-7.6L140.2,103.4z M138.2,122c0,0-8.4,3.3-13.8,5.2c-5.3,2-7.6-3.1-7.7-4.5
	c-1.8-4.8,4.1-12.9,4.1-12.9c12.3-2.3,18.1-5.7,18.1-5.7s0.5,3.6,0.9,7.3c0-0.1-0.1-0.1-0.1-0.1s-0.6-0.2-1.7-0.5
	c-1.2-0.3-5.7,0.6-6.8,1.1s-6.2,7.2-6.2,7.2c-0.2,1.2,0.8,1.2,1.3,0.3l0.7-1.1c6.3-5.8,12.8-5.8,12.8-5.8c0.1,0,0.1-0.1,0.2-0.1
	c0.3,2.8,0.6,5.4,0.6,6.3C140.6,121,138.2,122,138.2,122z"/>
<path class="st3" d="M154,122.7c0,0,16.5,5.4,19.6,7.6c2.4,0.6,13.8-5.6,13.8-5.6l-6.7-15c0,0-1.9-2.7-4.7-3.5
	c-2.7-0.8-14.1-4.4-14.1-4.4s-1.9-0.6-3,0c-1,0.6-1.3,0.7-2,1.5L154,122.7z M156.6,118.8c0-0.9,0.3-3.5,0.6-6.3
	c0,0.1,0.1,0.1,0.2,0.1c0,0,6.5,0,12.8,5.8l0.7,1.1c0.5,0.9,1.5,0.9,1.3-0.3c0,0-5.1-6.7-6.2-7.2c-1.1-0.5-5.7-1.4-6.8-1.1
	c-1.2,0.3-1.7,0.5-1.7,0.5s0,0-0.1,0.1c0.4-3.7,0.9-7.3,0.9-7.3s5.8,3.3,18.1,5.7c0,0,5.9,8.1,4.1,12.9c0,1.4-2.3,6.5-7.7,4.5
	c-5.3-2-13.8-5.2-13.8-5.2S156.6,121,156.6,118.8z"/>
<path class="st4" d="M150.7,191.8"/>
<polygon class="st3" points="150.7,216 141.2,203.8 160.1,203.8 "/>
<polygon class="st3" points="150.7,216 136.6,263.9 150.7,269.4 164.7,263.9 "/>
<path class="st3" d="M65,247.9c0-12.1,18.5-48.5,33.6-48.5c-16.8,23.4-6.2,63-6.2,63L65,247.9z"/>
<path class="st1" d="M233.6,247.9c0-12.1-18.5-48.5-33.6-48.5c16.8,23.4,6.2,63,6.2,63L233.6,247.9z"/>
</svg>
