<?xml version="1.0" encoding="utf-8"?>
<!-- Generator: Adobe Illustrator 19.2.1, SVG Export Plug-In . SVG Version: 6.00 Build 0)  -->
<svg version="1.1" id="cycle" xmlns="http://www.w3.org/2000/svg" xmlns:xlink="http://www.w3.org/1999/xlink" x="0px" y="0px"
	 viewBox="0 0 530 531" style="enable-background:new 0 0 530 531;" xml:space="preserve">
<style type="text/css">
	.st0{fill:#FC5D64;stroke:#FFFFFF;stroke-miterlimit:10;}
	.st1{fill:#DD4A4D;}
	.st2{fill:#F4CB76;stroke:#FFFFFF;stroke-width:4;stroke-miterlimit:10;}
	.st3{stroke:#FFFFFF;stroke-miterlimit:10;}
	.st4{fill:#FFFFFF;stroke:#000000;stroke-width:1.3;stroke-miterlimit:10;}
	.st5{fill:#FFFFFF;stroke:#000000;stroke-width:1.41;stroke-miterlimit:10;}
	.st6{fill:none;stroke:#000000;stroke-width:4;stroke-miterlimit:10;}
</style>
<title>rico</title>
<circle class="st0" cx="265.5" cy="266.2" r="226"/>
<polygon class="st1" points="491.3,492 264.5,491.3 165.3,391.6 425.1,202.8 490.6,265.2 "/>
<path class="st2" d="M356.5,395.3c-2.3,0-4.5-0.6-6.6-1.6l-84.4-44.4l-84.4,44.4c-6.9,3.6-15.4,1-19.1-5.9c-1.4-2.7-1.9-5.9-1.4-9
	l16.1-94l-68.2-66.5c-5.6-5.4-5.7-14.4-0.2-20c2.2-2.2,5-3.7,8.1-4.1l94.3-13.7L252.9,95c3.5-7,11.9-9.9,18.9-6.4
	c2.8,1.4,5,3.6,6.4,6.4l42.2,85.5l94.4,13.7c7.7,1.1,13.1,8.3,11.9,16c-0.4,3.1-1.9,5.9-4.1,8.1l-68.3,66.5l16.1,94
	c1.3,7.7-3.9,15-11.6,16.3C358.1,395.3,357.3,395.3,356.5,395.3z"/>
<circle class="st3" cx="235.2" cy="218.4" r="15.6"/>
<circle class="st3" cx="293.1" cy="218.4" r="15.5"/>
<ellipse class="st4" cx="242.5" cy="215.4" rx="6.1" ry="6.3"/>
<ellipse class="st5" cx="230.9" cy="227.3" rx="5.9" ry="2.2"/>
<ellipse class="st4" cx="299.7" cy="214.9" rx="6.1" ry="6.3"/>
<ellipse class="st5" cx="288.1" cy="226.7" rx="5.9" ry="2.2"/>
<path class="st6" d="M265.5,287.8c-25.9,0-41.7-5.8-50.3-10.6c-9.5-5.3-12.7-10.5-12.9-10.7l0.9-0.5c0.1,0.2,13.4,20.8,62.3,20.8
	V287.8L265.5,287.8z"/>
</svg>
