<?xml version="1.0" encoding="utf-8"?>
<!-- Generator: Adobe Illustrator 18.1.1, SVG Export Plug-In . SVG Version: 6.00 Build 0)  -->
<svg version="1.1" xmlns="http://www.w3.org/2000/svg" xmlns:xlink="http://www.w3.org/1999/xlink" x="0px" y="0px"
	 viewBox="0 0 800 600" enable-background="new 0 0 800 600" xml:space="preserve">
<g id="Calque_1">
</g>
<g id="circle">
	<g>
		<path fill="#47494D" d="M379.4-82.4C168.2-82.4-3,88.8-3,300c0,68.2,17.9,132.2,49.1,187.6c9.9-14.2,24.5-24.9,41.5-29.8
			C62.2,410.8,47.8,357.1,47.8,300c0-183.1,148.5-331.6,331.6-331.6S711,116.9,711,300S562.5,631.6,379.4,631.6
			c-75.8,0-145.6-25.4-201.4-68.2c-7.4,15.9-20.2,28.8-35.9,36.4c65.2,51.7,147.7,82.6,237.4,82.6c211.2,0,382.4-171.2,382.4-382.4
			S590.6-82.4,379.4-82.4z"/>
		<path display="none" fill="#47494D" stroke="#CC2ECC" stroke-miterlimit="10" d="M192.4,405.3c-4.8,6.9-7.6,15.3-7.6,24.4
			c0,23.7,19.2,42.8,42.8,42.8c6.7,0,13-1.5,18.6-4.3C224.4,451,206.1,429.6,192.4,405.3z"/>
		<path display="none" fill="#47494D" stroke="#CC2ECC" stroke-miterlimit="10" d="M266.4,447.8c2.6-5.5,4-11.7,4-18.2
			c0-23.7-19.2-42.8-42.8-42.8c-4.1,0-8.1,0.6-11.9,1.7C228.2,411.7,245.6,431.9,266.4,447.8z"/>
	</g>
	<circle fill="#47494D" cx="107" cy="532.9" r="52.1"/>
</g>
<g id="logo">
	<g>
		<path fill="#47494D" d="M372.3,342.7L238.2,298c0,27.8,0,56.1,0,63c0,31.4,63.8,56.8,142.5,56.8c62.5,0,115.4-16.1,134.7-38.4
			c-4.5-5-9.7-12.5-9.7-22.9c0-17,8.2-26.8,16.7-31.7c0-11.5-1.2-19.4-3.5-25.5l-129.7,43.3c-2.8,0.9-5.6,1.4-8.5,1.4
			S375.1,343.6,372.3,342.7z"/>
		<path fill="#47494D" d="M158,240.3c0,3.8,2.5,7.2,6.1,8.4L377.9,320c0.9,0.3,1.9,0.5,2.8,0.5c1,0,1.9-0.2,2.8-0.4l116.2-38.7
			c-5.4-2.5-11.8-4.9-19.5-7.9c-3.8-1.5-7.8-3.1-12-4.8c-65.1-26.9-90.1-34-90.5-34.2c-5.6-1.9-8.6-7.9-6.7-13.5
			c1.9-5.6,8-8.6,13.5-6.7c0.2,0.1,6.7,1.9,21.1,7.1c13.1,4.8,30.3,11.3,50.7,19.4c6.3,2.5,12.9,5.2,20.1,8.2c4,1.7,11,4.5,14.8,6
			c37,15.4,52.3,23.6,56.1,73.1c-6.6,4-11.3,11-11.3,19.3c0,7.6,4,14.1,9.7,18.2c-2.1,12-4.1,28.8-4.1,51.1
			c0,37.9,24.8,55.4,35.1,55.4c6.7,0,34.8-15.2,34.8-17.8c0-5.2-36.3-25.4-43.3-86.1c8-3.6,13.6-11.5,13.6-20.8
			c0-9.2-5.5-16.9-13.2-20.6c-2.4-30-9-48.4-20.2-61.5l49-16.3c3.6-1.2,6.1-4.6,6.1-8.4c0-3.8-2.5-7.2-6.1-8.4l-213.8-71.3
			c-1.8-0.6-3.8-0.6-5.6,0l-213.8,71.3l0,0C160.5,233.1,158,236.5,158,240.3z"/>
	</g>
</g>
</svg>
