<svg xmlns="http://www.w3.org/2000/svg" viewBox="0 0 306.2 306.2"><title>typedemo</title><circle cx="153.1" cy="153.1" r="153.1" fill="#47494d"/><path d="M79.1,191.7l31.7,31.7s-46.9,30.5-54.5,22.9S79.1,191.7,79.1,191.7Z" transform="translate(0 0)" fill="#fff"/><path d="M211.5,168.6c-9.7,9.7-17.8,15.8-24.7,19.1-15.7,44.8-58.9,57.3-58.9,57.3l-1.6-33.4s-6.5,4-8.8,1.7L89.3,185.1c-2.1-2.1,1.7-8.8,1.7-8.8l-33.4-1.7s12.8-45,59.8-59.8c0,0,9.5-13,18.5-22,19-19,103.6-49.4,115.2-37.8S230.5,149.6,211.5,168.6Zm1.8-77.4a21.14,21.14,0,1,0,0,29.9A21.06,21.06,0,0,0,213.3,91.2Z" transform="translate(0 0)" fill="#fff"/></svg>