<?xml version="1.0" encoding="utf-8"?>
<!-- Generator: Adobe Illustrator 19.1.0, SVG Export Plug-In . SVG Version: 6.00 Build 0)  -->
<svg version="1.2" baseProfile="tiny" xmlns="http://www.w3.org/2000/svg" xmlns:xlink="http://www.w3.org/1999/xlink" x="0px"
	 y="0px" viewBox="0 0 306.3 306.3" xml:space="preserve">
<g id="Calque_1" display="none">
</g>
<g id="code" display="none">
	<path display="inline" fill="#3683BB" stroke="#3683BB" stroke-miterlimit="10" d="M-141.6-1184.4c-82.3,0-148.9,66.6-148.9,149
		s66.6,149,149,149s148.9-66.7,148.9-149S-59.2-1184.4-141.6-1184.4z M-141.6-901.5c-74,0-134-60-134-134s60-134,134-134
		s134,60,134,134S-67.6-901.5-141.6-901.5z"/>
	<g display="inline">
		<path fill="#3683BB" stroke="#3683BB" stroke-miterlimit="10" d="M-227.4-1030.3v-20.7c6.5-0.1,11.1-1.9,13.8-5.5
			c2.6-3.4,4.1-7.5,4.6-12.1c0.3-4.5,0.5-9.4,0.5-14.7c0-9.5,0.5-16.6,1.5-21.1c0.9-4.3,2.7-7.9,5.4-10.8c2.7-2.8,6.2-4.8,10.6-6.2
			c4.5-1.3,10.5-2,18-2h4.6v20.6c-7.6,0-12.5,0.8-14.5,2.3c-2.1,1.6-3.1,4.9-3.1,10.2c0,16.9-1.1,28.4-3.2,34.4
			c-2.1,6-6.5,11.1-13,15.3c5.3,2.9,9.3,7.1,12.1,12.8c2.7,5.7,4,18,4,36.8c0,4.1,0.6,6.9,1.8,8.5c1.1,1.6,2.8,2.7,4.8,3.2
			s5.7,0.8,10.9,0.8v20.7h-4.5c-9.9,0-17.5-1.3-22.6-3.9c-5.1-2.5-8.5-6.3-10.3-11.2c-1.8-4.8-2.7-13.2-2.7-25.1
			c0-9-0.5-15.5-1.5-19.7c-0.9-4-2.7-7-5.4-9C-218.1-1028.8-222.1-1030-227.4-1030.3z"/>
		<path fill="#3683BB" stroke="#3683BB" stroke-miterlimit="10" d="M-55.7-1051v20.7c-5.2,0.2-9.2,1.4-11.8,3.4s-4.5,5.1-5.5,9.1
			s-1.5,10.6-1.5,19.7c0,9.9-0.5,16.9-1.4,21.2c-1,4.4-2.8,8-5.3,10.7c-2.6,2.8-6.2,4.9-10.7,6.2c-4.4,1.4-10.4,2.1-18,2.1h-4.6
			v-20.7c7.3,0,12-0.8,14.2-2.4s3.4-5,3.4-10.1c0-16.5,1.1-28,3.2-34.4c2.2-6.5,6.5-11.6,12.9-15.2c-7.1-4.2-11.5-9.7-13.4-16.4
			c-1.9-6.7-2.8-17.8-2.8-33.3c0-5.5-1.1-8.9-3.2-10.3c-2.1-1.4-6.9-2.2-14.4-2.2v-20.5h4.6c11.6,0,19.5,1.4,23.7,4.2
			c4.1,2.8,7.1,6.1,9,10c1.8,3.8,2.8,12.5,2.8,25.8c0,9.1,0.5,15.6,1.5,19.7c0.9,4,2.8,7,5.5,9.1
			C-64.9-1052.4-60.9-1051.2-55.7-1051z"/>
	</g>
</g>
<g id="graph" display="none">
	<path display="inline" fill="#6EAFD4" stroke="#6EAFD4" stroke-width="2" stroke-miterlimit="10" d="M428.6-1187.1
		c-83.8,0-151.7,67.9-151.7,151.7s67.9,151.7,151.7,151.7s151.7-67.9,151.7-151.7S512.4-1187.1,428.6-1187.1z M428.6-898.9
		c-75.4,0-136.5-61.1-136.5-136.5s61.2-136.5,136.5-136.5s136.5,61.1,136.5,136.5S504-898.9,428.6-898.9z"/>
	<path display="inline" fill="#6EAFD4" stroke="#6EAFD4" stroke-width="4" stroke-miterlimit="10" d="M496.6-1068.6
		c-5.7,0-10.3,4-11.7,9.2h-19.2l26.2-34.9c1.4,0.6,3,0.9,4.7,0.9c6.8,0,12.4-5.5,12.4-12.4s-5.5-12.4-12.4-12.4
		c-6.8,0-12.4,5.5-12.4,12.4c0,2.9,1.1,5.4,2.8,7.6l-29,38.9h-23.7c-1.4-5.3-6-9.2-11.7-9.2c-6.8,0-12.4,5.5-12.4,12.4
		c0,3,1.2,5.7,3,7.8l-22.8,32l-17.3-3.4c-0.4-6.5-5.7-11.7-12.2-11.7c-6.8,0-12.4,5.5-12.4,12.4c0,6.8,5.5,12.4,12.4,12.4
		c4.9,0,9-2.9,11-7l14.6,2.9l-21.2,29.7c-1.4-0.5-2.8-0.9-4.4-0.9c-6.8,0-12.4,5.5-12.4,12.4s5.5,12.4,12.4,12.4s12.4-5.5,12.4-12.4
		c0-3-1.2-5.7-3-7.8l22.9-32l17.3,3.4c0.4,6.5,5.7,11.6,12.2,11.6c6.8,0,12.4-5.5,12.4-12.4c0-2.9-1.1-5.4-2.8-7.6l29.1-38.7H485
		c1.4,5.3,6,9.2,11.7,9.2c6.8,0,12.4-5.5,12.4-12.4C508.9-1063.1,503.4-1068.6,496.6-1068.6z M427.2-1018.3c-1.4-0.6-3-0.9-4.7-0.9
		c-4.9,0-9,2.9-11,7l-14.6-2.9l21.2-29.7c1.4,0.5,2.8,0.9,4.4,0.9c5.7,0,10.3-4,11.7-9.2h19.2L427.2-1018.3z"/>
</g>
<g id="bd" display="none">
	<path display="inline" fill="#FB8D46" stroke="#FB8D46" stroke-miterlimit="10" d="M-141.5-580.5c-81.2,0-147,65.8-147,147
		s65.8,147,147,147s147-65.8,147-147S-60.3-580.5-141.5-580.5z M-141.5-301.2c-73.1,0-132.2-59.3-132.2-132.3
		s59.2-132.3,132.2-132.3S-9.2-506.5-9.2-433.5S-68.4-301.2-141.5-301.2z"/>
	<path display="inline" fill="#FB8D46" d="M-196.8-448.7c15,3.5,35.1,5.7,57.1,5.7c34,0,63.3-5.2,76.8-12.5l4.4-29.3
		c-15.1,5-40.8,8.5-70.1,8.5c-46.4,0-84-8.5-84-18.9c0-10.4,37.7-18.9,84-18.9c20.7,0,39.6,1.7,54.3,4.4c-15.5-4.6-39.7-7.6-67-7.6
		c-46.8,0-84.8,8.8-84.8,19.6c0,0.2,0,0.5,0.1,0.8l5.9,39.2c2.9,2.2,7.2,4.3,12.5,6.1c-6.8,2.6-10.6,5.7-10.6,9c0,0.2,0,0.4,0.1,0.7
		l5.3,35.3c3.1,2.4,7.9,4.7,14.1,6.8c-8.3,2.6-13.1,5.9-13.1,9.4c0,0.2,0,0.4,0.1,0.6l4.9,28.1c9.2,7.1,35.4,16.3,66.3,16.3
		c28.1,0,51.2-6.3,62.4-12.4l4.7-27.4c-12.4,4.2-39.9,12.2-64.1,12.2c-38.4,0-63.2-7-63.2-15.5c0-3.2,4.3-6.1,11.6-8.6
		c13.3,3.4,30.3,5.8,49,5.8c30.7,0,57.2-6.8,69.4-13.4l3.7-29.5c-13.6,4.6-36.9,10.7-63.2,10.7c-41.9,0-75.9-7.6-75.9-17
		C-206-443.5-202.7-446.3-196.8-448.7z M-84.7-467.9c1.4-2.7,4-4.1,5.7-3.2c1.7,0.9,2,3.8,0.5,6.5c-1.4,2.7-4,4.1-5.7,3.2
		C-85.8-462.2-86.1-465.2-84.7-467.9z M-84.7-370.1c1.4-2.7,4-4.1,5.7-3.2c1.7,0.9,2,3.8,0.5,6.5c-1.5,2.7-4,4.1-5.7,3.2
		C-85.8-364.5-86.1-367.4-84.7-370.1z M-84.7-417.1c1.4-2.7,4-4.1,5.7-3.2c1.7,0.9,2,3.8,0.5,6.5c-1.5,2.7-4,4.1-5.7,3.2
		C-85.8-411.4-86.1-414.4-84.7-417.1z"/>
</g>
<g id="ml" display="none">
	<path display="inline" fill="#E45621" stroke="#E45621" stroke-miterlimit="10" d="M453.3-569.6c-82.3,0-148.9,66.6-148.9,149
		s66.6,149,149,149s148.9-66.7,148.9-149S535.7-569.6,453.3-569.6z M453.3-286.7c-74,0-134-60-134-134s60-134,134-134
		s134,60,134,134S527.3-286.7,453.3-286.7z"/>
	<g display="inline">
		<path fill="#E45621" d="M560.8-376.2h-83.1v1.3v0.4v0.4c0,0.8-0.9,1.5-2.1,1.5h-47.3c-1.2,0-2.1-0.7-2.1-1.5v-0.4v-0.4v-1.3h-80.4
			h-9.6v6.7v1.7v1.6c0,3.8,4.3,6.7,9.6,6.7h215c5.3,0,9.6-3.1,9.6-6.7v-1.6v-1.7v-6.7H560.8z"/>
	</g>
	<g display="inline">
		<path fill="#E45621" d="M526.7-507.8H380c-10,0-18.1,8.2-18.1,18.1v38.9v54.2v12.9c0,1.4,1.2,2.6,2.6,2.6h12.9h151.9h12.9
			c1.4,0,2.6-1.2,2.6-2.6v-12.9v-54.2v-38.9C544.8-499.6,536.7-507.8,526.7-507.8z M471.1-433.4l-6.6,1.6c-0.1,1.6-0.4,3.2-0.9,4.8
			l5.5,3.9c0.3,0.3,0.6,0.8,0.3,1.4c-0.5,1-1,2.1-1.5,3.1c-0.2,0.5-0.8,0.7-1.3,0.6l-6.4-1.9c-0.9,1.3-2,2.5-3.2,3.7l2.8,6.1
			c0.2,0.4,0.1,1-0.4,1.3l-2.8,1.9c-0.5,0.3-1,0.2-1.4-0.2l-4.6-4.9c-1.5,0.7-3,1.2-4.6,1.6l-0.6,6.7c0,0.4-0.4,0.9-1,1
			c-1.1,0.1-2.3,0.2-3.4,0.2c-0.5,0-1-0.3-1.1-0.8l-1.6-6.5c-1.6-0.1-3.2-0.5-4.8-0.9l-3.9,5.5c-0.3,0.3-0.8,0.6-1.4,0.3
			c-1-0.5-2.1-1-3.1-1.5c-0.5-0.2-0.7-0.8-0.6-1.3l1.9-6.4c-1.3-0.9-2.6-2-3.7-3.2l-6.1,2.8c-0.4,0.2-1,0.1-1.3-0.4l-1.9-2.8
			c-0.3-0.5-0.2-1,0.2-1.4l4.9-4.6c-0.7-1.5-1.2-3-1.6-4.6l-6.7-0.6c-0.4,0-0.9-0.4-1-1c-0.1-1.1-0.2-2.3-0.2-3.4
			c0-0.5,0.3-1,0.8-1.1l6.5-1.6c0.1-1.6,0.5-3.2,0.9-4.8l-5.5-3.9c-0.3-0.3-0.6-0.8-0.3-1.3c0.5-1,1-2.1,1.5-3.1
			c0.2-0.5,0.8-0.7,1.3-0.6l6.4,1.9c0.9-1.3,2-2.5,3.2-3.7l-2.8-6.1c-0.2-0.4-0.1-1,0.4-1.3l2.8-1.9c0.5-0.3,1-0.2,1.4,0.2l4.6,4.9
			c1.5-0.7,3.1-1.2,4.6-1.6l0.6-6.7c0-0.4,0.4-0.9,1-1c1.1-0.1,2.3-0.2,3.4-0.2c0.5,0,1,0.3,1.1,0.8l1.6,6.5
			c1.6,0.1,3.2,0.5,4.8,0.9l3.9-5.5c0.3-0.3,0.8-0.7,1.4-0.4c1,0.5,2,1,3.1,1.5c0.5,0.2,0.7,0.8,0.6,1.3l-1.9,6.4
			c1.3,0.9,2.5,2,3.7,3.2l6.1-2.8c0.4-0.2,1-0.1,1.4,0.4l1.9,2.8c0.3,0.5,0.2,1-0.2,1.4l-4.9,4.6c0.7,1.5,1.2,3,1.6,4.6l6.7,0.6
			c0.4,0,1,0.4,1,1c0.1,1.1,0.2,2.3,0.2,3.4C472-434,471.6-433.5,471.1-433.4z M498.9-464.4c-0.2,1.1-0.4,2.3-0.7,3.4
			c-0.1,0.5-0.6,0.9-1.1,0.9l-6-0.2c-0.7,1.6-1.7,3.1-3,4.5l2.5,5.5c0.2,0.4,0.1,1-0.4,1.4l-2.8,1.9c-0.5,0.3-1,0.2-1.4-0.2
			l-4.2-4.4c-1.7,0.7-3.5,1-5.2,1.1l-2.1,5.7c-0.2,0.4-0.6,0.8-1.2,0.7c-1.1-0.2-2.3-0.4-3.4-0.7c-0.5-0.1-0.9-0.6-0.9-1.1l0.2-6
			c-1.6-0.7-3.1-1.7-4.5-3l-5.5,2.5c-0.4,0.2-1,0.1-1.4-0.4l-1.9-2.8c-0.3-0.5-0.2-1,0.2-1.4l4.3-4.1c-0.7-1.7-1-3.5-1.1-5.3
			l-5.7-2.1c-0.4-0.2-0.8-0.6-0.7-1.2c0.2-1.1,0.4-2.3,0.7-3.4c0.1-0.5,0.6-0.9,1.1-0.9l6,0.2c0.7-1.6,1.7-3.1,2.9-4.5l-2.5-5.5
			c-0.2-0.4-0.1-1,0.4-1.4l2.8-1.9c0.5-0.3,1-0.2,1.4,0.2l4.1,4.4c1.7-0.6,3.5-1,5.3-1.1l2.1-5.7c0.1-0.3,0.4-0.6,0.8-0.7
			c0.1,0,0.3,0,0.4,0c1.1,0.2,2.3,0.4,3.4,0.6c0.5,0.1,0.9,0.6,0.9,1.1l-0.2,6c1.6,0.7,3.1,1.7,4.5,3l5.5-2.5c0.4-0.2,1-0.1,1.3,0.4
			l1.9,2.8c0.3,0.5,0.2,1-0.2,1.4l-4.4,4.1c0.7,1.7,1,3.5,1.1,5.3l5.7,2.1C498.6-465.4,499-465,498.9-464.4z"/>
		<path fill="#E45621" d="M475.4-477c-1.8,0.1-3.5,0.7-5.1,1.8c-0.3,0.2-0.6,0.4-0.8,0.6c-4.2,3.6-4.6,9.9-1,14
			c3.6,4.2,9.9,4.6,14,1l0,0c4.1-3.6,4.6-9.9,1-14C481.4-476,478.4-477.1,475.4-477z"/>
		<path fill="#E45621" d="M439.5-450.5c-3,0.2-5.9,1.2-8.5,3c-0.5,0.3-0.9,0.7-1.3,1c-6.9,6-7.7,16.4-1.7,23.3
			c6,6.9,16.4,7.7,23.3,1.7l0.1-0.1c6.9-6,7.6-16.4,1.6-23.2C449.4-448.8,444.4-450.8,439.5-450.5z"/>
	</g>
</g>
<g id="typedemo">
	<g id="Calque_1_2_">
		<g id="Calque_1_1_">
			<circle fill="#47494D" cx="153.1" cy="153.1" r="153.1"/>
		</g>
	</g>
	<path fill="#FFFFFF" d="M79.1,191.7l31.7,31.7c0,0-46.9,30.5-54.5,22.9C48.7,238.6,79.1,191.7,79.1,191.7z"/>
	<path fill="#FFFFFF" d="M211.5,168.6c-9.7,9.7-17.8,15.8-24.7,19.1c-15.7,44.8-58.9,57.3-58.9,57.3l-1.6-33.4c0,0-6.5,4-8.8,1.7
		c-6.7-6.7-21.4-21.4-28.2-28.2c-2.1-2.1,1.7-8.8,1.7-8.8l-33.4-1.7c0,0,12.8-45,59.8-59.8c0,0,9.5-13,18.5-22
		c19-19,103.6-49.4,115.2-37.8C262.7,66.7,230.5,149.6,211.5,168.6z M213.3,91.2c-8.3-8.3-21.6-8.3-29.9,0s-8.3,21.6,0,29.9
		s21.6,8.3,29.9,0C221.6,112.8,221.6,99.3,213.3,91.2z"/>
	<g>
	</g>
	<g>
	</g>
	<g>
	</g>
	<g>
	</g>
	<g>
	</g>
	<g>
	</g>
</g>
</svg>
