<?xml version="1.0" encoding="utf-8"?>
<!-- Generator: Adobe Illustrator 18.1.1, SVG Export Plug-In . SVG Version: 6.00 Build 0)  -->
<svg version="1.1" id="Calque_1" xmlns="http://www.w3.org/2000/svg" xmlns:xlink="http://www.w3.org/1999/xlink" x="0px" y="0px"
	 viewBox="501.5 0 298.5 300" enable-background="new 501.5 0 298.5 300" xml:space="preserve">
<circle fill="none" cx="651.5" cy="150" r="150"/>
<path fill="#9CD8DC" d="M723.3,149.8c16.5,0,29.9-13.4,29.9-29.9S739.8,90,723.3,90c-6.2,0-11.8,1.8-16.5,5c2.9-4.5,4.5-10,4.5-15.7
	c0-16.5-13.4-29.9-29.9-29.9s-29.9,13.4-29.9,29.9V150h-72c-16.5,0-29.9,13.4-29.9,29.9s13.4,29.9,29.9,29.9c6.2,0,11.8-1.8,16.5-5
	c-2.9,4.5-4.5,10-4.5,15.7c0,16.5,13.4,29.9,29.9,29.9s29.9-13.4,29.9-29.9c0,16.5,13.4,29.9,29.9,29.9s29.9-13.4,29.9-29.9
	c0-5.8-1.7-11.1-4.5-15.7c4.7,3.1,10.5,5,16.5,5c16.5,0,29.9-13.4,29.9-29.9C753.2,163.4,739.9,149.8,723.3,149.8z"/>
<path fill="#E66E73" d="M605.5,33.3c-16.7,0-30.1,13.4-30.1,29.9c0,5.8,1.7,11.1,4.5,15.7c-4.7-3.1-10.5-5-16.5-5
	c-16.5,0-29.9,13.4-29.9,29.9s13.4,29.9,29.9,29.9h72V63.2C635.4,46.8,622,33.3,605.5,33.3z"/>
</svg>
