<?xml version="1.0" standalone="no"?>
<!DOCTYPE svg PUBLIC "-//W3C//DTD SVG 20010904//EN"
 "http://www.w3.org/TR/2001/REC-SVG-20010904/DTD/svg10.dtd">
<svg version="1.0" xmlns="http://www.w3.org/2000/svg"
 width="2400.000000pt" height="2400.000000pt" viewBox="0 0 2400.000000 2400.000000"
 preserveAspectRatio="xMidYMid meet">
<metadata>
Created by potrace 1.11, written by Peter Selinger 2001-2013
</metadata>
<g transform="translate(0.000000,2400.000000) scale(0.100000,-0.100000)"
fill="#000000" stroke="none">
<path d="M11099 23996 c-4 -3 -33 -6 -224 -22 -33 -3 -94 -9 -135 -14 -41 -5
-102 -12 -135 -15 -33 -3 -73 -8 -90 -10 -57 -7 -130 -17 -154 -21 -53 -8
-108 -15 -141 -19 -109 -12 -675 -116 -810 -150 -30 -7 -68 -16 -85 -19 -16
-3 -39 -7 -50 -10 -65 -15 -353 -88 -420 -106 -44 -12 -84 -23 -90 -24 -5 -1
-44 -13 -85 -25 -41 -12 -113 -34 -160 -47 -284 -84 -1044 -356 -1075 -385 -5
-5 -15 -9 -22 -9 -7 0 -38 -12 -70 -26 -83 -36 -109 -48 -193 -84 -41 -18
-104 -46 -140 -62 -36 -17 -99 -46 -140 -65 -188 -88 -498 -247 -750 -386
-271 -149 -683 -407 -975 -611 -196 -136 -639 -466 -665 -496 -3 -3 -25 -21
-50 -40 -25 -19 -47 -37 -50 -40 -3 -3 -18 -16 -35 -29 -16 -12 -46 -37 -65
-54 -19 -18 -62 -54 -95 -82 -33 -27 -62 -52 -65 -55 -3 -3 -41 -36 -85 -75
-44 -38 -85 -74 -91 -80 -272 -244 -700 -674 -925 -930 -24 -27 -47 -52 -50
-55 -17 -16 -259 -304 -344 -410 -55 -69 -102 -127 -106 -130 -14 -12 -333
-447 -415 -565 -105 -152 -309 -462 -327 -495 -4 -8 -15 -27 -25 -42 -65 -99
-255 -430 -384 -668 -91 -167 -260 -513 -348 -710 -23 -52 -54 -120 -67 -150
-151 -334 -363 -917 -492 -1355 -51 -171 -135 -480 -146 -533 -2 -10 -10 -44
-19 -77 -20 -79 -92 -409 -100 -460 -4 -22 -8 -47 -11 -55 -2 -8 -7 -28 -10
-45 -12 -68 -34 -192 -40 -225 -3 -19 -7 -46 -10 -60 -3 -14 -7 -41 -10 -60
-3 -19 -8 -48 -11 -65 -3 -16 -7 -46 -9 -65 -2 -19 -13 -102 -25 -184 -11 -82
-23 -174 -26 -205 -3 -31 -7 -72 -10 -91 -8 -65 -13 -120 -31 -310 -4 -47 -8
-492 -8 -990 0 -797 4 -1012 20 -1110 2 -14 7 -61 10 -105 6 -77 8 -97 19
-175 3 -19 8 -62 11 -95 4 -33 8 -71 11 -85 2 -14 6 -45 9 -70 3 -25 8 -54 10
-65 2 -11 7 -49 11 -85 3 -36 8 -68 10 -71 2 -4 6 -24 9 -45 5 -35 19 -117 30
-184 13 -72 29 -155 46 -245 11 -55 23 -111 25 -125 8 -42 34 -155 81 -355
164 -691 439 -1501 709 -2083 19 -41 34 -75 34 -77 0 -6 112 -240 190 -396
202 -404 445 -829 672 -1172 32 -49 58 -90 58 -93 0 -2 19 -31 43 -63 23 -32
78 -111 122 -175 44 -64 110 -157 148 -207 37 -49 67 -92 67 -95 0 -3 6 -11
12 -18 7 -7 71 -88 142 -180 486 -630 1128 -1300 1726 -1801 52 -44 97 -83
100 -86 12 -14 317 -253 445 -349 77 -58 142 -107 145 -110 3 -3 19 -14 35
-26 17 -11 84 -59 150 -105 180 -125 235 -163 252 -174 9 -5 52 -34 95 -62 43
-29 81 -53 84 -53 3 0 17 -8 32 -19 95 -65 170 -111 180 -111 7 0 12 -4 12 -9
0 -5 10 -13 23 -17 12 -4 36 -17 53 -30 17 -13 34 -24 37 -24 4 0 35 -17 69
-38 265 -162 885 -480 1183 -607 17 -7 53 -23 80 -35 94 -42 350 -147 475
-194 69 -26 134 -52 145 -57 94 -44 647 -221 1030 -329 96 -27 457 -116 530
-130 33 -6 74 -15 90 -20 17 -5 44 -11 60 -14 17 -2 102 -18 190 -36 88 -17
176 -33 195 -36 19 -3 73 -12 120 -20 47 -9 132 -22 190 -30 58 -7 114 -16
126 -18 12 -2 45 -7 75 -11 30 -3 70 -8 89 -10 19 -2 60 -7 90 -10 30 -4 66
-8 80 -10 14 -3 57 -7 95 -11 39 -3 84 -7 100 -9 17 -1 73 -6 125 -11 117 -11
1863 -12 1978 -1 46 4 98 9 115 12 18 2 64 6 102 10 39 3 84 7 100 9 17 2 57
7 90 11 33 3 74 8 90 10 17 2 50 7 75 10 25 3 54 7 65 9 11 2 46 7 79 10 61 8
405 64 554 92 215 39 643 138 887 204 44 12 87 23 95 26 54 13 373 111 515
157 289 95 776 277 799 298 6 5 16 9 23 9 11 0 47 15 148 60 11 5 81 36 155
68 311 137 636 300 985 492 136 76 423 248 550 330 33 22 67 43 75 47 28 15
225 146 355 236 270 189 698 515 880 672 33 29 71 61 85 73 46 38 70 59 140
122 38 34 78 70 89 79 223 193 697 670 932 936 24 28 46 52 49 55 3 3 36 41
74 85 38 44 91 107 120 139 28 33 60 71 71 85 10 14 22 28 25 31 4 4 170 212
203 255 4 6 33 44 65 85 210 272 540 757 703 1030 138 232 214 367 343 603 42
78 224 440 254 507 11 25 43 94 71 153 28 60 51 110 51 112 0 3 11 28 24 57
52 115 67 151 149 358 98 247 96 241 187 500 37 107 70 202 73 210 33 89 196
651 223 770 11 51 10 47 38 160 42 169 125 563 151 720 3 19 10 60 15 90 5 30
11 71 14 90 3 19 8 44 10 56 2 12 7 45 11 75 3 30 8 65 10 79 6 34 12 74 20
140 4 30 9 62 10 70 2 8 6 44 9 80 4 36 8 76 11 88 2 12 7 61 10 110 4 48 8
97 10 108 16 100 20 319 20 1099 0 788 -4 1006 -20 1106 -2 13 -6 61 -10 105
-3 45 -8 93 -10 105 -2 13 -6 53 -10 89 -6 68 -51 388 -70 505 -6 42 -21 129
-30 180 -160 947 -476 1968 -891 2880 -82 182 -262 547 -324 660 -15 28 -44
81 -65 120 -204 381 -525 891 -800 1272 -62 87 -118 163 -122 168 -5 6 -46 60
-93 120 -80 105 -261 332 -306 385 -12 14 -66 77 -120 140 -54 63 -115 133
-135 155 -20 22 -62 69 -94 105 -33 36 -75 83 -94 104 -54 59 -516 521 -596
596 -39 36 -111 101 -160 145 -87 78 -156 140 -179 160 -6 6 -51 44 -101 85
-49 41 -92 77 -95 81 -36 40 -544 428 -760 580 -210 148 -595 399 -687 449
-15 8 -42 25 -60 38 -17 12 -34 22 -37 22 -3 0 -34 17 -68 38 -35 21 -88 52
-118 69 -30 16 -91 50 -135 75 -188 106 -453 241 -690 353 -122 58 -137 65
-280 128 -128 56 -433 182 -515 212 -41 15 -93 35 -115 45 -22 10 -60 24 -85
31 -25 7 -49 16 -55 19 -5 4 -95 35 -200 69 -104 35 -199 66 -210 71 -11 5
-29 11 -40 13 -11 3 -103 30 -205 60 -250 75 -559 156 -773 202 -139 31 -400
84 -447 92 -19 3 -39 6 -45 8 -17 3 -88 16 -155 26 -36 6 -87 14 -115 19 -27
5 -86 14 -130 20 -44 6 -91 13 -105 15 -14 2 -47 7 -75 10 -27 3 -66 8 -85 10
-19 3 -57 7 -85 10 -68 7 -145 16 -175 20 -14 2 -61 7 -105 10 -44 3 -93 9
-110 12 -33 6 -1899 16 -1906 9z m-2095 -15832 c3 -8 2 -12 -4 -9 -6 3 -10 10
-10 16 0 14 7 11 14 -7z m544 -1129 c-3 -3 -9 2 -12 12 -6 14 -5 15 5 6 7 -7
10 -15 7 -18z m160 -330 c-3 -3 -9 2 -12 12 -6 14 -5 15 5 6 7 -7 10 -15 7
-18z m676 -1391 c3 -8 2 -12 -4 -9 -6 3 -10 10 -10 16 0 14 7 11 14 -7z m20
-40 c3 -8 2 -12 -4 -9 -6 3 -10 10 -10 16 0 14 7 11 14 -7z m560 -1160 c3 -8
2 -12 -4 -9 -6 3 -10 10 -10 16 0 14 7 11 14 -7z m84 -179 c-3 -3 -9 2 -12 12
-6 14 -5 15 5 6 7 -7 10 -15 7 -18z m90 -180 c-3 -3 -9 2 -12 12 -6 14 -5 15
5 6 7 -7 10 -15 7 -18z m190 -400 c-3 -3 -9 2 -12 12 -6 14 -5 15 5 6 7 -7 10
-15 7 -18z m436 -891 c3 -8 2 -12 -4 -9 -6 3 -10 10 -10 16 0 14 7 11 14 -7z
m264 -549 c-3 -3 -9 2 -12 12 -6 14 -5 15 5 6 7 -7 10 -15 7 -18z m196 -401
c3 -8 2 -12 -4 -9 -6 3 -10 10 -10 16 0 14 7 11 14 -7z m160 -330 c3 -8 2 -12
-4 -9 -6 3 -10 10 -10 16 0 14 7 11 14 -7z m264 -549 c-3 -3 -9 2 -12 12 -6
14 -5 15 5 6 7 -7 10 -15 7 -18z m20 -40 c-3 -3 -9 2 -12 12 -6 14 -5 15 5 6
7 -7 10 -15 7 -18z"/>
</g>
</svg>
