<?xml version="1.0" standalone="no"?>
<!DOCTYPE svg PUBLIC "-//W3C//DTD SVG 20010904//EN"
 "http://www.w3.org/TR/2001/REC-SVG-20010904/DTD/svg10.dtd">
<svg version="1.0" xmlns="http://www.w3.org/2000/svg"
 width="2400.000000pt" height="2400.000000pt" viewBox="0 0 2400.000000 2400.000000"
 preserveAspectRatio="xMidYMid meet">
<metadata>
Created by potrace 1.11, written by Peter Selinger 2001-2013
</metadata>
<g transform="translate(0.000000,2400.000000) scale(0.100000,-0.100000)"
fill="#000000" stroke="none">
<path d="M11618 23995 c-1 -1 -77 -6 -168 -10 -210 -8 -374 -19 -485 -30 -16
-1 -64 -5 -105 -9 -81 -7 -160 -15 -200 -21 -14 -2 -52 -7 -85 -10 -33 -3 -71
-8 -85 -10 -80 -12 -110 -16 -150 -20 -25 -3 -56 -8 -70 -10 -14 -2 -44 -7
-67 -9 -23 -3 -79 -12 -125 -20 -45 -8 -101 -17 -123 -20 -43 -7 -59 -10 -140
-26 -27 -5 -63 -12 -80 -15 -141 -24 -479 -99 -700 -157 -82 -21 -158 -40
-167 -43 -162 -37 -641 -188 -933 -293 -222 -80 -613 -236 -784 -314 -47 -21
-117 -53 -238 -109 -193 -89 -572 -283 -742 -381 -46 -26 -85 -48 -87 -48 -7
0 -279 -163 -429 -257 -232 -145 -602 -394 -685 -460 -8 -7 -60 -45 -115 -85
-55 -40 -102 -75 -105 -78 -3 -3 -34 -28 -70 -55 -121 -91 -352 -278 -467
-378 -323 -280 -372 -326 -693 -647 -243 -243 -344 -348 -491 -515 -29 -33
-55 -62 -58 -65 -10 -8 -73 -82 -116 -135 -22 -27 -48 -57 -57 -67 -65 -67
-466 -586 -591 -765 -20 -29 -54 -77 -74 -105 -133 -190 -339 -512 -475 -743
-82 -140 -198 -344 -198 -349 0 -2 -16 -33 -36 -68 -36 -63 -294 -573 -294
-581 0 -3 -22 -51 -49 -108 -27 -57 -85 -192 -131 -299 -45 -107 -87 -208 -95
-225 -7 -16 -27 -68 -44 -115 -18 -47 -36 -94 -41 -105 -29 -67 -201 -566
-216 -623 -2 -9 -24 -84 -49 -167 -119 -389 -230 -849 -311 -1285 -2 -14 -7
-36 -9 -50 -3 -14 -7 -43 -11 -65 -3 -22 -12 -78 -20 -125 -9 -47 -17 -101
-20 -120 -2 -19 -6 -48 -9 -65 -2 -16 -7 -52 -11 -80 -3 -27 -8 -58 -10 -69
-2 -10 -6 -44 -9 -75 -3 -31 -8 -70 -10 -87 -2 -17 -7 -57 -10 -90 -4 -32 -8
-70 -10 -84 -2 -14 -7 -61 -10 -105 -4 -44 -8 -96 -10 -115 -2 -19 -6 -73 -10
-120 -3 -47 -8 -107 -10 -135 -26 -326 -26 -1376 -1 -1535 3 -14 7 -72 11
-130 3 -58 7 -121 10 -140 2 -19 6 -69 9 -110 6 -71 21 -214 31 -283 2 -18 6
-54 9 -82 10 -90 45 -327 75 -505 31 -179 34 -198 52 -286 5 -28 12 -63 15
-78 37 -207 179 -785 244 -991 10 -33 32 -107 50 -165 87 -288 274 -812 355
-995 7 -16 33 -79 58 -140 46 -112 55 -134 160 -360 99 -215 289 -594 357
-710 9 -16 34 -61 54 -98 47 -86 154 -271 209 -361 170 -277 326 -516 474
-724 93 -132 349 -474 390 -522 12 -14 65 -79 118 -145 53 -66 111 -136 128
-155 18 -19 45 -51 61 -70 126 -154 363 -408 625 -671 262 -261 516 -499 671
-625 19 -16 51 -43 70 -61 19 -17 89 -75 155 -128 66 -53 131 -106 144 -117
51 -44 393 -299 521 -390 359 -253 793 -526 1100 -691 41 -22 80 -43 85 -47
46 -33 780 -400 800 -400 2 0 34 -14 72 -31 99 -45 118 -53 228 -98 55 -23
109 -46 120 -51 11 -5 74 -30 139 -55 683 -266 1376 -468 2061 -601 22 -4 42
-8 45 -9 3 0 28 -5 55 -10 28 -4 55 -9 60 -11 15 -3 185 -32 229 -39 21 -3 48
-7 60 -10 12 -2 37 -7 56 -9 19 -3 100 -14 180 -25 80 -11 172 -23 205 -26 33
-4 74 -8 90 -10 33 -4 215 -23 285 -30 25 -2 92 -7 150 -10 58 -3 119 -8 136
-10 188 -25 1312 -25 1525 -1 19 3 83 7 142 11 60 4 118 8 130 10 12 2 63 6
112 10 50 3 97 8 105 10 8 2 44 6 80 10 60 5 272 31 330 40 14 2 48 7 75 10
28 3 73 10 100 15 28 5 70 12 95 15 25 4 68 11 95 16 28 5 66 12 85 15 19 3
58 9 86 15 28 5 64 12 80 15 16 3 36 7 44 9 8 2 29 7 45 10 17 2 39 7 50 9 11
3 63 14 115 25 115 24 407 94 510 121 41 12 83 22 92 25 320 74 1040 321 1463
500 61 25 115 47 120 49 6 1 40 16 77 33 37 17 76 34 87 38 11 3 55 23 98 44
43 21 101 48 128 61 150 67 530 262 700 358 44 25 105 59 135 75 30 17 113 66
184 109 71 43 130 78 132 78 1 0 29 17 61 38 32 21 70 44 86 51 15 8 27 18 27
23 0 4 4 8 10 8 25 0 679 452 801 554 9 7 52 40 95 72 44 32 81 62 84 65 3 3
61 51 130 106 388 312 894 782 1188 1103 28 30 76 83 109 117 32 34 77 83 99
110 23 26 52 59 65 73 54 58 251 293 352 420 59 74 115 144 125 155 21 25 312
423 371 507 169 240 387 585 546 863 96 167 109 190 194 348 56 103 231 453
271 542 18 39 44 97 60 130 82 178 193 441 257 610 18 50 38 99 42 110 17 37
89 239 131 365 23 69 44 132 47 140 4 8 7 20 9 25 1 6 17 55 34 110 74 233
194 667 225 815 2 8 8 35 14 60 49 201 155 756 177 925 3 28 8 59 10 70 2 11
6 44 10 73 3 29 7 61 9 71 2 10 6 42 10 72 3 30 8 65 10 79 2 14 6 54 10 90 3
36 8 76 10 90 3 14 7 59 11 100 3 41 7 93 9 115 33 409 40 578 40 1035 0 337
-7 608 -20 775 -2 28 -7 91 -10 140 -4 50 -8 106 -10 125 -2 19 -6 73 -10 119
-3 47 -8 87 -9 90 -2 3 -6 38 -10 76 -4 39 -8 81 -10 95 -3 14 -7 56 -11 95
-4 38 -8 72 -10 75 -1 3 -6 30 -9 61 -4 31 -9 67 -11 80 -3 13 -7 42 -10 64
-3 22 -18 119 -34 215 -31 179 -34 198 -52 286 -5 28 -12 63 -15 79 -37 204
-179 783 -244 990 -10 33 -32 107 -50 165 -85 283 -277 823 -355 995 -7 17
-23 55 -35 85 -91 231 -353 783 -498 1050 -88 161 -190 343 -255 451 -179 302
-417 662 -640 968 -80 110 -326 430 -352 457 -5 6 -23 29 -40 50 -30 38 -85
104 -95 114 -3 3 -28 32 -55 65 -179 215 -373 425 -669 720 -258 257 -317 313
-470 450 -44 39 -84 75 -90 80 -6 6 -56 49 -111 95 -55 47 -102 87 -105 90
-10 10 -77 66 -114 95 -21 17 -44 35 -50 40 -24 23 -248 196 -361 281 -247
185 -566 404 -825 566 -169 105 -452 271 -602 352 -38 20 -98 53 -135 73 -268
145 -788 389 -1063 498 -52 20 -108 43 -125 51 -238 107 -1196 419 -1445 470
-14 3 -43 10 -65 16 -22 5 -47 11 -55 13 -8 2 -42 10 -75 19 -56 14 -348 79
-408 90 -15 3 -53 10 -85 16 -31 5 -68 13 -82 15 -14 3 -50 10 -80 15 -30 6
-65 12 -77 14 -11 3 -43 8 -70 12 -49 7 -69 10 -113 18 -44 9 -426 60 -520 70
-30 3 -71 8 -90 10 -32 4 -85 9 -227 22 -29 2 -77 6 -105 9 -29 2 -102 7 -163
10 -60 4 -132 9 -160 11 -58 5 -982 14 -987 9z"/>
</g>
</svg>
