<?xml version="1.0" encoding="UTF-8"?>
<!-- Generator: Adobe Illustrator 16.0.0, SVG Export Plug-In . SVG Version: 6.00 Build 0)  -->
<!DOCTYPE svg PUBLIC "-//W3C//DTD SVG 1.1//EN" "http://www.w3.org/Graphics/SVG/1.1/DTD/svg11.dtd">
<svg version="1.1" id="Calque_1" xmlns="http://www.w3.org/2000/svg" xmlns:xlink="http://www.w3.org/1999/xlink" x="0px" y="0px" width="1000px" height="546px" viewBox="0 44 1000 546" enable-background="new 0 44 1000 546" xml:space="preserve">
<g transform="translate(0,48.90165178) scale(1,-1) translate(0,-48.81575715)">
	<g>
		<polygon id="11E-ARRONDISSEMENT" fill="#CCCCCC" points="493.532,-246.134 449.146,-215.524 403.379,-193.789     422.286,-156.552 430.285,-154.708 517.379,-192.256 514.499,-200.292   "/>
		<polygon id="12E-ARRONDISSEMENT" fill="#CCCCCC" points="519.873,-188.675 433.195,-151.305 508.468,-146.89     532.195,-154.659   "/>
		<polygon id="13E-ARRONDISSEMENT" fill="#CCCCCC" points="592.813,-235.089 522.813,-199.035 525.717,-190.939     538.188,-156.507 575.403,-167.209   "/>
		<polygon id="14E-ARRONDISSEMENT" fill="#CCCCCC" points="576.935,-295.205 500.178,-249.01 521.654,-202.047     592.836,-238.715 595.178,-253.553   "/>
		<polygon id="15E-ARRONDISSEMENT" fill="#CCCCCC" points="581.488,-305.608 526.142,-352.835 489.477,-344.243     468.488,-336.121 499.148,-252.511 575.189,-298.276   "/>
		<polygon id="16E-ARRONDISSEMENT" fill="#CCCCCC" points="463.089,-334.757 416.95,-312.256 385.906,-293.22     434.93,-257.536 448.631,-219.495 493.906,-250.718   "/>
		<polygon id="17E-ARRONDISSEMENT" fill="#CCCCCC" points="381.439,-291.829 344.977,-286.227 276.083,-224.086     322.276,-192.142 397.717,-194.53 445.083,-217.025 431.182,-255.617   "/>
		<polygon id="18E-ARRONDISSEMENT" fill="#CCCCCC" points="397.546,-189.048 322.375,-186.671 297.311,-124.965     323.382,-95.268 422.311,-67.831 417.043,-150.651   "/>
		<polygon id="19E-ARRONDISSEMENT" fill="#CCCCCC" points="422.957,-149.19 428.169,-67.229 514.957,-66.406     508.306,-142.783 431.117,-147.308   "/>
		<polygon id="110E-ARRONDISSEMENT" fill="#CCCCCC" points="576.512,-162.766 538.12,-151.725 513.347,-143.614     520.121,-65.839 579.729,-61.83 597.937,-67.634 628.347,-135.923   "/>
		<polygon id="111E-ARRONDISSEMENT" fill="#CCCCCC" points="715.713,-281.878 598.792,-251.529 596.439,-236.671     578.713,-167.536 629.887,-141.034   "/>
		<polygon id="112E-ARRONDISSEMENT" fill="#CCCCCC" points="974.594,-470.187 875.113,-469.449 847.535,-439.361     807.441,-434.9 739.831,-403.149 686.254,-424.964 588.58,-306.698 581.947,-298.975 600.976,-255.535 722.728,-287.129     791.189,-296.114 781.793,-353.986 793.497,-369.643 819.795,-320.173 837.947,-327.221 920.328,-307.31 998.947,-342.54     992.856,-421.361   "/>
		<polygon id="113E-ARRONDISSEMENT" fill="#CCCCCC" points="498.651,-484.13 491.314,-349.293 528.813,-358.084     585.422,-309.779 680.314,-424.679 578.267,-480.362 547.63,-482.901 533.902,-469.42   "/>
		<polygon id="114E-ARRONDISSEMENT" fill="#CCCCCC" points="493.066,-486.493 444.6,-478.763 372.872,-446.373     321.066,-428.949 415.329,-316.104 463.51,-339.599 485.539,-348.128   "/>
		<polygon id="115E-ARRONDISSEMENT" fill="#CCCCCC" points="318.034,-424.792 271.201,-405.58 237.652,-387.801     202.578,-402.394 185.64,-370.675 166.712,-372.315 272.715,-227.898 341.677,-290.101 378.182,-295.705 409.712,-315.042   "/>
		<polygon id="116E-ARRONDISSEMENT" fill="#CCCCCC" points="160.945,-372.598 123.437,-354.495 101.086,-296.118     4.32,-251.742 10.219,-215.381 34.822,-155.771 91.512,-110.162 130.445,-123.176 149.541,-87.157 230.576,-97.118     292.29,-126.166 318.32,-190.248 270.52,-223.306   "/>
		<polygon id="117E-ARRONDISSEMENT" fill="#CCCCCC" points="294.996,-122.759 233.942,-94.02 252.064,-50.91     329.671,1.046 394.375,39.548 434.942,43.85 423.421,-64.059 321.782,-92.25   "/>
		<polygon id="118E-ARRONDISSEMENT" fill="#CCCCCC" points="427.93,-63.191 439.424,44.485 527.165,46.678     583.207,47.195 600.975,47.469 604.93,10.785 578.477,-58.259 517.837,-62.339   "/>
		<polygon id="119E-ARRONDISSEMENT" fill="#CCCCCC" points="632.364,-133.85 601.675,-64.931 583.301,-59.074     609.542,9.423 605.619,45.816 681.802,42.794 709.857,12.837 718.412,-28.148 725.122,-62.393 766.301,-94.225   "/>
		<polygon id="120E-ARRONDISSEMENT" fill="#CCCCCC" points="789.82,-293.331 721.494,-284.366 632.301,-137.989     768.476,-97.702 778.92,-130.62 787.176,-240.824 791.301,-277.302   "/>
	</g>
</g>
</svg>
